<svg width="32" height="32" viewBox="0 0 32 32" fill="none" xmlns="http://www.w3.org/2000/svg">
<g opacity="0.34" filter="url(#filter0_f)">
<path opacity="0.34" d="M6 20.9953H13.9967C15.101 20.9953 15.9963 20.1002 15.9967 18.9959L15.9998 8.82804C15.9999 8.33262 15.8162 7.85477 15.4842 7.48707L13.8371 5.663C13.4537 5.23837 12.9068 4.99828 12.3347 5.00344L5.98198 5.06068C4.88449 5.07056 4 5.96305 4 7.06059V18.9953C4 20.0999 4.89543 20.9953 6 20.9953Z" fill="black"/>
</g>
<path d="M6 18.9953H16.996C17.5482 18.9953 17.9958 18.5478 17.996 17.9956L17.9999 3.99165C18 3.75957 17.9193 3.5347 17.7717 3.35557L15.3076 0.36419C15.1154 0.130917 14.8281 -0.00293602 14.5259 4.88817e-05L5.99012 0.084355C5.44172 0.0897714 5 0.535875 5 1.08431V17.9953C5 18.5476 5.44772 18.9953 6 18.9953Z" fill="url(#paint0_linear)"/>
<path d="M15 4.99533H8C7.44772 4.99533 7 5.44305 7 5.99533V15.9953C7 16.5476 7.44772 16.9953 8 16.9953H15C15.5523 16.9953 16 16.5476 16 15.9953V5.99533C16 5.44305 15.5523 4.99533 15 4.99533Z" fill="url(#paint1_linear)"/>
<g opacity="0.34" filter="url(#filter1_f)">
<path opacity="0.34" fill-rule="evenodd" clip-rule="evenodd" d="M14.5 8.99533C10.3579 8.99533 7 12.3532 7 16.4953C7 20.6374 10.3579 23.9953 14.5 23.9953H18.9927C19.7213 23.9953 20.3922 24.3915 20.744 25.0294L21.6296 26.6351C21.9917 27.2915 22.8332 27.3018 23.2076 26.6542L26.213 21.4566C26.2209 21.4428 26.2093 21.426 26.1936 21.4286C26.1762 21.4315 26.1647 21.411 26.1762 21.3976C27.3126 20.083 28 18.3694 28 16.4953C28 12.3532 24.6421 8.99533 20.5 8.99533H14.5Z" fill="black"/>
</g>
<path fill-rule="evenodd" clip-rule="evenodd" d="M15.5 6.99533C11.3579 6.99533 8 10.3532 8 14.4953C8 18.6374 11.3579 21.9953 15.5 21.9953H20.0554L21.7735 24.7209C22.162 25.3373 23.065 25.3469 23.4668 24.7389L26.6052 19.9896C28.0784 18.6201 29 16.6653 29 14.4953C29 10.3532 25.6421 6.99533 21.5 6.99533H15.5Z" fill="url(#paint2_linear)"/>
<path d="M13.3676 16.9953V16.0433H14.0326V15.4203H13.3676V12.1093H12.3316L10.3506 15.3643V16.0433H12.6186V16.9953H13.3676ZM12.5696 12.8303H12.6186V15.4203H11.0226L12.5696 12.8303ZM16.4168 17.0793C17.4528 17.0793 18.1318 16.4003 18.1318 15.4203C18.1318 14.4963 17.5228 13.9083 16.6968 13.9083C16.0878 13.9083 15.7658 14.2373 15.5628 14.6223L15.5138 14.6083C15.7518 13.5583 16.3888 12.9143 17.4948 12.1093H16.4448C15.6398 12.6413 14.6948 13.7613 14.6948 15.1753C14.6948 16.3443 15.3388 17.0793 16.4168 17.0793ZM16.4168 16.4353C15.8498 16.4353 15.5138 16.1203 15.5138 15.5393V15.4413C15.5138 14.8603 15.8498 14.5453 16.4168 14.5453C16.9838 14.5453 17.3198 14.8603 17.3198 15.4413V15.5393C17.3198 16.1203 16.9838 16.4353 16.4168 16.4353ZM22.0561 12.1093H19.2841L19.1021 14.8323L19.7531 14.9233C19.9281 14.7273 20.1591 14.5383 20.5791 14.5383C21.1531 14.5383 21.4821 14.8743 21.4821 15.4343V15.5183C21.4821 16.0783 21.1531 16.4143 20.5791 16.4143C20.0331 16.4143 19.7601 16.1343 19.5221 15.7493L18.9481 16.2043C19.2421 16.6523 19.6971 17.0793 20.5651 17.0793C21.6711 17.0793 22.3081 16.3863 22.3081 15.4133C22.3081 14.4543 21.6711 13.8873 20.8311 13.8873C20.2711 13.8873 20.0261 14.1393 19.8091 14.5243H19.7601L19.8861 12.7953H22.0561V12.1093ZM24.0344 14.1183V14.7903H24.5524C25.1684 14.7903 25.5184 15.0633 25.5184 15.5603V15.6093C25.5184 16.1133 25.1894 16.4143 24.5944 16.4143C24.0274 16.4143 23.7404 16.1413 23.5024 15.7493L22.9214 16.2043C23.2294 16.6523 23.6844 17.0793 24.5944 17.0793C25.6374 17.0793 26.3374 16.5053 26.3374 15.6513C26.3374 14.9443 25.8684 14.5453 25.3154 14.4403V14.4053C25.8264 14.2933 26.2534 13.9083 26.2534 13.2853C26.2534 12.4943 25.5884 12.0253 24.6644 12.0253C23.8524 12.0253 23.4044 12.4033 23.1104 12.8303L23.6354 13.2853C23.8594 12.9143 24.1814 12.6903 24.6434 12.6903C25.1124 12.6903 25.4204 12.9423 25.4204 13.3833V13.4323C25.4204 13.8313 25.1334 14.1183 24.5314 14.1183H24.0344Z" fill="url(#paint3_linear)"/>
<defs>
<filter id="filter0_f" x="0" y="1.00336" width="19.9998" height="23.992" filterUnits="userSpaceOnUse" color-interpolation-filters="sRGB">
<feFlood flood-opacity="0" result="BackgroundImageFix"/>
<feBlend mode="normal" in="SourceGraphic" in2="BackgroundImageFix" result="shape"/>
<feGaussianBlur stdDeviation="2" result="effect1_foregroundBlur"/>
</filter>
<filter id="filter1_f" x="3" y="4.99533" width="29" height="26.1384" filterUnits="userSpaceOnUse" color-interpolation-filters="sRGB">
<feFlood flood-opacity="0" result="BackgroundImageFix"/>
<feBlend mode="normal" in="SourceGraphic" in2="BackgroundImageFix" result="shape"/>
<feGaussianBlur stdDeviation="2" result="effect1_foregroundBlur"/>
</filter>
<linearGradient id="paint0_linear" x1="14.75" y1="18.1291" x2="13.3548" y2="0.480454" gradientUnits="userSpaceOnUse">
<stop stop-color="#E2C299"/>
<stop offset="1" stop-color="#C5A67C"/>
</linearGradient>
<linearGradient id="paint1_linear" x1="15.7299" y1="5.62927" x2="4.96844" y2="13.4558" gradientUnits="userSpaceOnUse">
<stop stop-color="#EBDAC5"/>
<stop offset="1" stop-color="#E1CFB7"/>
</linearGradient>
<linearGradient id="paint2_linear" x1="28.6367" y1="16.7257" x2="6.83225" y2="16.7257" gradientUnits="userSpaceOnUse">
<stop stop-color="#DEDEDE"/>
<stop offset="1" stop-color="#787878"/>
</linearGradient>
<linearGradient id="paint3_linear" x1="26.3751" y1="15.4953" x2="11.9376" y2="15.4953" gradientUnits="userSpaceOnUse">
<stop stop-color="#A4A4A4"/>
<stop offset="1" stop-color="#272727"/>
</linearGradient>
</defs>
</svg>
