<svg width="232" height="204" viewBox="0 0 232 204" fill="none" xmlns="http://www.w3.org/2000/svg">
<path opacity="0.3" d="M0.000576019 61.19V97.769L59.8867 79.5843V43.4011L0.000576019 61.19Z" fill="#F5F5F5"/>
<path opacity="0.3" d="M41.237 128.061L161.521 91.5522V18.8832C161.521 17.4396 160.357 16.648 158.914 17.0671L44.1242 51.2012C42.6806 51.6436 41.237 53.1804 41.237 54.624V128.061Z" fill="#AEAEAE"/>
<path d="M50.434 134.627V138.655L111.275 179.076C112.555 179.938 114.185 180.217 115.512 179.821L226.088 147.364C232.351 145.617 232.351 139.959 230.185 137.119L166.434 98.9099L50.434 134.627Z" fill="url(#paint0_linear)"/>
<path d="M115.139 176.259L229.044 142.334C231.535 141.589 232.001 138.26 229.836 136.839L170.741 98.1416L50.4567 134.651L112.578 175.91C113.323 176.375 114.278 176.515 115.139 176.259Z" fill="#CFE4FF"/>
<path d="M47.0581 129.063V58.4658C47.0581 57.0222 48.2223 55.5088 49.6659 55.0664L164.455 20.9322C167.063 20.3501 170.719 22.3292 170.719 25.0069V97.7457L51.6217 134.255C51.2958 134.348 50.7369 134.534 50.4342 134.627L47.0581 129.854C47.0581 129.691 47.0581 129.202 47.0581 129.063Z" fill="url(#paint1_linear)"/>
<mask id="mask0" style="mask-type:alpha" maskUnits="userSpaceOnUse" x="35" y="13" width="77" height="28">
<path d="M35.5325 40.0483L111.205 17.5561V13.9005L35.5325 36.3927V40.0483Z" fill="url(#paint2_linear)"/>
</mask>
<g mask="url(#mask0)">
<path d="M35.5325 40.0483L111.205 17.5561V13.9005L35.5325 36.3927V40.0483Z" fill="url(#paint3_linear)"/>
</g>
<mask id="mask1" style="mask-type:alpha" maskUnits="userSpaceOnUse" x="35" y="6" width="77" height="27">
<path d="M35.5325 32.4344L111.205 9.94222V6.30994L35.5325 28.8022V32.4344Z" fill="url(#paint4_linear)"/>
</mask>
<g mask="url(#mask1)">
<path d="M35.5315 32.4344L111.204 9.94222V6.30994L35.5315 28.8022V32.4344Z" fill="url(#paint5_linear)"/>
<path d="M50.4342 134.627L170.719 98.1184V25.4494C170.719 24.0058 169.555 23.2141 168.111 23.6333L53.3215 57.7674C51.8779 58.2098 50.4342 59.7465 50.4342 61.1901V134.627Z" fill="#A2BCFF"/>
<path d="M55.3465 128.318L167.062 95.1147V28.1038L55.3465 61.3066V128.318Z" fill="#343EAE"/>
</g>
<path d="M104.313 163.173L207.298 131.926C209.58 131.228 209.999 128.201 208.02 126.897L169.322 101.82L59.3522 135.21L101.962 162.847C102.66 163.29 103.498 163.43 104.313 163.173Z" fill="#ACC8FD"/>
<g opacity="0.5">
<path opacity="0.5" d="M207.53 128.643L168.832 103.567L61.0276 136.281L59.3279 135.186L169.298 101.82L207.995 126.897C209.416 127.829 209.602 129.621 208.764 130.832C208.741 129.971 208.345 129.156 207.53 128.643Z" fill="#ACC8FD"/>
</g>
<path d="M158.914 160.03L184.55 152.253C185.109 152.09 185.225 151.322 184.736 150.996L175.097 144.756L147.715 153.068L158.332 159.96C158.518 160.053 158.728 160.077 158.914 160.03Z" fill="#ACC8FD"/>
<g opacity="0.5">
<path opacity="0.5" d="M174.724 145.897L148.809 153.767L147.738 153.068L175.119 144.756L184.759 150.996C185.248 151.322 185.155 152.067 184.573 152.253L184.503 152.277C184.456 152.23 184.41 152.183 184.363 152.16L174.724 145.897Z" fill="#ACC8FD"/>
</g>
<path d="M67.4792 135.489L167.483 105.499L170.161 107.269L70.1103 137.235L67.4792 135.489Z" fill="#343EAE"/>
<path d="M102.847 134.604L177.658 112.182L180.336 113.951L105.525 136.374L102.847 134.604Z" fill="#343EAE"/>
<path d="M182.85 115.605L185.574 117.374L85.57 147.341L82.8691 145.571L182.85 115.605Z" fill="#343EAE"/>
<path d="M190.767 120.774L90.8322 150.74L88.108 148.994L188.066 119.027L190.767 120.774Z" fill="#343EAE"/>
<path d="M195.937 124.22L96.072 154.139L93.3711 152.393L193.259 122.45L195.937 124.22Z" fill="#343EAE"/>
<path d="M126.876 150.367L124.198 148.598L173.77 133.277L176.471 135.047L126.876 150.367Z" fill="#343EAE"/>
<path d="M99.4707 138.19L80.3313 143.918L77.6304 142.172L96.7698 136.42L99.4707 138.19Z" fill="#343EAE"/>
<path d="M113.698 154.465L110.997 152.719L121.568 149.506L124.292 151.275L113.698 154.465Z" fill="#343EAE"/>
<path d="M110.787 155.234L101.869 157.911L99.1685 156.142L108.133 153.464L110.787 155.234Z" fill="#343EAE"/>
<path d="M176.075 132.602L186.669 129.412L189.37 131.158L178.799 134.371L176.075 132.602Z" fill="#343EAE"/>
<path d="M201.338 127.689L192.234 130.413L189.58 128.644L198.637 125.919L201.338 127.689Z" fill="#343EAE"/>
<path d="M140.006 4.49379L151.089 1.18748V0L140.006 3.30631V4.49379Z" fill="#00FFFF"/>
<path d="M135.373 5.89079L137.632 5.21555V4.02808L135.373 4.70331V5.89079Z" fill="#00FFFF"/>
<path d="M125.547 8.82449L133.58 6.42625V5.23877L125.547 7.63701V8.82449Z" fill="#43BAE6"/>
<path d="M100.843 16.2056L113.789 12.3404V11.153L100.843 15.0181V16.2056Z" fill="#00FFFF"/>
<path d="M117.608 11.1995L118.539 10.9201V9.73267L117.608 10.0121V11.1995Z" fill="#43BAE6"/>
<path d="M115.698 11.7583L116.606 11.4789V10.2914L115.698 10.5708V11.7583Z" fill="#43BAE6"/>
<path d="M119.726 10.5708L123.73 9.36009V8.17261L119.726 9.38337V10.5708Z" fill="#43BAE6"/>
<path d="M71.4591 24.9835L72.3672 24.7041V23.5166L71.4591 23.796V24.9835Z" fill="#43BAE6"/>
<path d="M69.5267 25.5656L70.458 25.2862V24.0988L69.5267 24.3782V25.5656Z" fill="#43BAE6"/>
<path d="M73.5549 24.3549L77.583 23.1441V21.9567L73.5549 23.1674V24.3549Z" fill="#43BAE6"/>
<path d="M79.1192 22.7017L83.124 21.4909V20.3035L79.1192 21.5142V22.7017Z" fill="#43BAE6"/>
<path d="M148.831 4.63346L151.09 3.95823V2.77075L148.831 3.44598V4.63346Z" fill="#43BAE6"/>
<path d="M139.005 7.56728L147.038 5.16904V3.98157L139.005 6.37981V7.56728Z" fill="#43BAE6"/>
<path d="M108.829 16.5782L127.387 11.0366V9.84912L108.829 15.3907V16.5782Z" fill="#43BAE6"/>
<path d="M131.066 9.94223L131.997 9.66282V8.47534L131.066 8.75475V9.94223Z" fill="#43BAE6"/>
<path d="M129.156 10.5243L130.064 10.2449V9.05737L129.156 9.33678V10.5243Z" fill="#43BAE6"/>
<path d="M133.185 9.3134L137.189 8.10264V6.91516L133.185 8.12592V9.3134Z" fill="#00FFFF"/>
<path d="M73.5549 27.1257L77.583 25.9149V24.7274L73.5549 25.9382V27.1257Z" fill="#43BAE6"/>
<path d="M126.386 12.9226L118.353 15.3208V16.5083L126.386 14.1101V12.9226Z" fill="#43BAE6"/>
<path d="M151.09 5.54163L138.144 9.40675V10.5942L151.09 6.7291V5.54163Z" fill="#43BAE6"/>
<path d="M134.325 10.5476L133.394 10.827V12.0145L134.325 11.7351V10.5476Z" fill="#43BAE6"/>
<path d="M116.606 15.8563L115.698 16.1124V17.2999L116.606 17.0438V15.8563Z" fill="#43BAE6"/>
<path d="M136.235 9.98877L135.327 10.2449V11.4324L136.235 11.1762V9.98877Z" fill="#43BAE6"/>
<path d="M132.207 11.1763L128.202 12.387V13.5745L132.207 12.3637V11.1763Z" fill="#43BAE6"/>
<path d="M82.2159 27.312L83.124 27.0326V25.8451L82.2159 26.1245V27.312Z" fill="#43BAE6"/>
<path d="M80.2835 27.894L81.2148 27.6146V26.4271L80.2835 26.7065V27.894Z" fill="#43BAE6"/>
<path d="M111.926 20.0242L105.523 21.9334V23.1209L111.926 21.2116V20.0242Z" fill="#43BAE6"/>
<path d="M116.561 18.6271L114.302 19.3023V20.4898L116.561 19.8146V18.6271Z" fill="#43BAE6"/>
<path d="M126.386 15.6934L118.353 18.0916V19.2791L126.386 16.8808V15.6934Z" fill="#43BAE6"/>
<path d="M151.09 8.31226L138.144 12.1774V13.3649L151.09 9.49973V8.31226Z" fill="#43BAE6"/>
<path d="M134.325 13.3182L133.394 13.5976V14.7851L134.325 14.5057V13.3182Z" fill="#43BAE6"/>
<path d="M136.235 12.7595L135.327 13.0156V14.2031L136.235 13.947V12.7595Z" fill="#43BAE6"/>
<path d="M132.207 13.947L128.202 15.1578V16.3453L132.207 15.1345V13.947Z" fill="#43BAE6"/>
<path d="M71.4591 33.2959L72.3672 33.0165V31.829L71.4591 32.1084V33.2959Z" fill="#43BAE6"/>
<path d="M73.5549 32.6672L77.583 31.4797V30.2922L73.5549 31.4797V32.6672Z" fill="#43BAE6"/>
<path d="M79.1201 31.0141L82.2168 30.0827V28.8953L79.1201 29.8266V31.0141Z" fill="#43BAE6"/>
<path d="M80.6094 32.1316L69.5262 35.4612V36.6487L80.6094 33.3191V32.1316Z" fill="#00FFFF"/>
<path d="M136.514 15.4371L123.568 19.3023V20.4897L136.514 16.6246V15.4371Z" fill="#43BAE6"/>
<path d="M119.727 20.4666L118.818 20.7227V21.9102L119.727 21.654V20.4666Z" fill="#43BAE6"/>
<path d="M121.636 19.8844L120.728 20.1638V21.3513L121.636 21.0719V19.8844Z" fill="#43BAE6"/>
<path d="M117.631 21.0952L113.603 22.2827V23.4702L117.631 22.2827V21.0952Z" fill="#43BAE6"/>
<path d="M149.181 11.6652L148.273 11.9213V13.1088L149.181 12.8526V11.6652Z" fill="#43BAE6"/>
<path d="M151.09 11.083L150.182 11.3624V12.5499L151.09 12.2705V11.083Z" fill="#43BAE6"/>
<path d="M147.062 12.2938L143.058 13.4813V14.6688L147.062 13.4813V12.2938Z" fill="#43BAE6"/>
<path d="M141.52 13.947L137.515 15.1345V16.322L141.52 15.1345V13.947Z" fill="#43BAE6"/>
<path d="M140.007 18.5106L151.09 15.2043V14.0168L140.007 17.3232V18.5106Z" fill="#43BAE6"/>
<path d="M135.373 19.9078L137.632 19.2325V18.045L135.373 18.7203V19.9078Z" fill="#43BAE6"/>
<path d="M125.547 22.8415L133.58 20.4432V19.2557L125.547 21.654V22.8415Z" fill="#43BAE6"/>
<path d="M100.843 30.2224L113.789 26.3573V25.1698L100.843 29.0349V30.2224Z" fill="#43BAE6"/>
<path d="M117.608 25.2165L118.539 24.9371V23.7496L117.608 24.029V25.2165Z" fill="#43BAE6"/>
<path d="M115.698 25.7752L116.606 25.4958V24.3083L115.698 24.5878V25.7752Z" fill="#43BAE6"/>
<path d="M119.726 24.5877L123.73 23.3769V22.1895L119.726 23.4002V24.5877Z" fill="#43BAE6"/>
<path d="M71.4591 39.0005L72.3672 38.721V37.5336L71.4591 37.813V39.0005Z" fill="#43BAE6"/>
<path d="M69.5267 39.5593L70.458 39.3032V38.1157L69.5267 38.3718V39.5593Z" fill="#00FFFF"/>
<path d="M73.5549 38.3719L77.583 37.1611V35.9736L73.5549 37.1844V38.3719Z" fill="#43BAE6"/>
<path d="M79.1192 36.7187L83.124 35.5079V34.3204L79.1192 35.5312V36.7187Z" fill="#43BAE6"/>
<path d="M148.831 18.6503L151.09 17.9751V16.7876L148.831 17.4628V18.6503Z" fill="#43BAE6"/>
<path d="M139.005 21.5841L147.038 19.1859V17.9984L139.005 20.3967V21.5841Z" fill="#00FFFF"/>
<path d="M108.829 30.595L127.387 25.0534V23.866L108.829 29.4075V30.595Z" fill="#43BAE6"/>
<path d="M131.066 23.9591L131.997 23.6797V22.4922L131.066 22.7716V23.9591Z" fill="#43BAE6"/>
<path d="M129.156 24.5179L130.064 24.2618V23.0743L129.156 23.3305V24.5179Z" fill="#00FFFF"/>
<path d="M133.185 23.3305L137.189 22.1197V20.9323L133.185 22.143V23.3305Z" fill="#43BAE6"/>
<path d="M73.5549 41.1426L77.583 39.9319V38.7444L73.5549 39.9551V41.1426Z" fill="#43BAE6"/>
<path d="M126.386 26.9393L118.353 29.3376V30.525L126.386 28.1268V26.9393Z" fill="#43BAE6"/>
<path d="M151.09 19.5585L138.144 23.4236V24.6111L151.09 20.7459V19.5585Z" fill="#00FFFF"/>
<path d="M134.325 24.5645L133.394 24.8439V26.0313L134.325 25.7519V24.5645Z" fill="#43BAE6"/>
<path d="M116.606 29.8499L115.698 30.1293V31.3167L116.606 31.0373V29.8499Z" fill="#43BAE6"/>
<path d="M136.235 24.0057L135.327 24.2619V25.4493L136.235 25.1932V24.0057Z" fill="#43BAE6"/>
<path d="M132.207 25.1931L128.202 26.4039V27.5914L132.207 26.3806V25.1931Z" fill="#43BAE6"/>
<path d="M82.2159 41.3288L83.124 41.0494V39.8619L82.2159 40.1413V41.3288Z" fill="#00FFFF"/>
<path d="M80.2835 41.911L81.2148 41.6316V40.4441L80.2835 40.7235V41.911Z" fill="#43BAE6"/>
<path d="M111.926 34.041L105.523 35.9503V37.1378L111.926 35.2285V34.041Z" fill="#43BAE6"/>
<path d="M116.561 32.6439L114.302 33.3192V34.5066L116.561 33.8314V32.6439Z" fill="#00FFFF"/>
<path d="M126.386 29.7102L118.353 32.1084V33.2959L126.386 30.8977V29.7102Z" fill="#43BAE6"/>
<path d="M151.09 22.3292L138.144 26.1943V27.3818L151.09 23.5167V22.3292Z" fill="#43BAE6"/>
<path d="M134.325 27.3353L133.394 27.6147V28.8022L134.325 28.5228V27.3353Z" fill="#43BAE6"/>
<path d="M136.235 26.7765L135.327 27.0326V28.2201L136.235 27.964V26.7765Z" fill="#43BAE6"/>
<path d="M132.207 27.964L128.202 29.1748V30.3622L132.207 29.1515V27.964Z" fill="#43BAE6"/>
<path d="M71.4591 47.3128L72.3672 47.0334V45.8459L71.4591 46.1254V47.3128Z" fill="#43BAE6"/>
<path d="M73.5549 46.6841L77.583 45.4734V44.2859L73.5549 45.4966V46.6841Z" fill="#43BAE6"/>
<path d="M79.1201 45.0309L82.2168 44.0996V42.9121L79.1201 43.8435V45.0309Z" fill="#43BAE6"/>
<path d="M140.007 29.4308L151.09 26.1245V24.937L140.007 28.2433V29.4308Z" fill="#43BAE6"/>
<path d="M135.373 30.8046L137.632 30.1294V28.9419L135.373 29.6171V30.8046Z" fill="#43BAE6"/>
<path d="M125.547 33.7617L133.58 31.3402V30.1527L125.547 32.5742V33.7617Z" fill="#43BAE6"/>
<path d="M100.843 41.1427L113.789 37.2543V36.0668L100.843 39.9552V41.1427Z" fill="#00FFFF"/>
<path d="M117.608 36.1133L118.539 35.8572V34.6697L117.608 34.9258V36.1133Z" fill="#43BAE6"/>
<path d="M115.698 36.6954L116.606 36.416V35.2285L115.698 35.5079V36.6954Z" fill="#43BAE6"/>
<path d="M119.726 35.4847L123.73 34.2972V33.1097L119.726 34.2972V35.4847Z" fill="#43BAE6"/>
<path d="M71.4591 49.9206L72.3672 49.6412V48.4537L71.4591 48.7331V49.9206Z" fill="#43BAE6"/>
<path d="M69.5267 50.4795L70.458 50.2001V49.0126L69.5267 49.292V50.4795Z" fill="#00FFFF"/>
<path d="M73.5549 49.292L77.583 48.0813V46.8938L73.5549 48.1046V49.292Z" fill="#43BAE6"/>
<path d="M79.1192 47.6156L83.124 46.4281V45.2406L79.1192 46.4281V47.6156Z" fill="#00FFFF"/>
<path d="M148.831 29.5706L151.09 28.8954V27.7079L148.831 28.3831V29.5706Z" fill="#43BAE6"/>
<path d="M139.005 32.5043L147.038 30.1061V28.9186L139.005 31.3168V32.5043Z" fill="#00FFFF"/>
<path d="M108.829 41.5152L127.387 35.9736V34.7861L108.829 40.3277V41.5152Z" fill="#43BAE6"/>
<path d="M131.066 34.8792L131.997 34.5998V33.4124L131.066 33.6918V34.8792Z" fill="#43BAE6"/>
<path d="M129.156 35.4381L130.064 35.1587V33.9712L129.156 34.2506V35.4381Z" fill="#43BAE6"/>
<path d="M133.185 34.2505L137.189 33.0398V31.8523L133.185 33.0631V34.2505Z" fill="#43BAE6"/>
<path d="M73.5549 52.0628L77.583 50.852V49.6646L73.5549 50.8753V52.0628Z" fill="#43BAE6"/>
<path d="M126.386 37.8596L118.353 40.2579V41.4453L126.386 39.0471V37.8596Z" fill="#43BAE6"/>
<path d="M151.09 30.4786L138.144 34.3438V35.5312L151.09 31.6661V30.4786Z" fill="#43BAE6"/>
<path d="M134.325 35.4846L133.394 35.764V36.9515L134.325 36.6721V35.4846Z" fill="#43BAE6"/>
<path d="M116.606 40.77L115.698 41.0494V42.2369L116.606 41.9575V40.77Z" fill="#43BAE6"/>
<path d="M136.235 34.9026L135.327 35.182V36.3695L136.235 36.0901V34.9026Z" fill="#43BAE6"/>
<path d="M132.207 36.1133L128.202 37.3008V38.4882L132.207 37.3008V36.1133Z" fill="#43BAE6"/>
<path d="M82.2159 52.249L83.124 51.9696V50.7821L82.2159 51.0615V52.249Z" fill="#43BAE6"/>
<path d="M80.2835 52.8077L81.2148 52.5516V51.3641L80.2835 51.6203V52.8077Z" fill="#00FFFF"/>
<path d="M111.926 44.9379L105.523 46.8471V48.0346L111.926 46.1253V44.9379Z" fill="#00FFFF"/>
<path d="M116.561 43.5641L114.302 44.2393V45.4268L116.561 44.7516V43.5641Z" fill="#43BAE6"/>
<path d="M126.386 40.6304L118.353 43.0286V44.2161L126.386 41.8179V40.6304Z" fill="#43BAE6"/>
<path d="M151.09 33.2494L138.144 37.1145V38.302L151.09 34.4369V33.2494Z" fill="#43BAE6"/>
<path d="M134.325 38.2554L133.394 38.5348V39.7223L134.325 39.4428V38.2554Z" fill="#43BAE6"/>
<path d="M136.235 37.6733L135.327 37.9527V39.1402L136.235 38.8608V37.6733Z" fill="#43BAE6"/>
<path d="M132.207 38.8842L128.202 40.0716V41.2824L132.207 40.0716V38.8842Z" fill="#43BAE6"/>
<path d="M71.4591 58.233L72.3672 57.9536V56.7661L71.4591 57.0455V58.233Z" fill="#00FFFF"/>
<path d="M73.5549 57.6043L77.583 56.3935V55.2061L73.5549 56.4168V57.6043Z" fill="#43BAE6"/>
<path d="M79.1201 55.9278L82.2168 55.0198V53.8323L79.1201 54.7403V55.9278Z" fill="#43BAE6"/>
<path d="M80.6094 57.0687L69.5262 60.375V61.5625L80.6094 58.2562V57.0687Z" fill="#00FFFF"/>
<path d="M136.514 40.3743L123.568 44.2394V45.4269L136.514 41.5617V40.3743Z" fill="#43BAE6"/>
<path d="M119.727 45.3802L118.818 45.6597V46.8471L119.727 46.5677V45.3802Z" fill="#43BAE6"/>
<path d="M121.636 44.8215L120.728 45.0777V46.2651L121.636 46.009V44.8215Z" fill="#43BAE6"/>
<path d="M117.631 46.0089L113.603 47.2197V48.4071L117.631 47.1964V46.0089Z" fill="#43BAE6"/>
<path d="M149.181 36.579L148.273 36.8584V38.0459L149.181 37.7665V36.579Z" fill="#43BAE6"/>
<path d="M151.09 36.0201L150.182 36.2995V37.487L151.09 37.2076V36.0201Z" fill="#43BAE6"/>
<path d="M147.062 37.2076L143.058 38.4184V39.6059L147.062 38.3951V37.2076Z" fill="#00FFFF"/>
<path d="M141.52 38.8842L137.515 40.0716V41.2591L141.52 40.0716V38.8842Z" fill="#43BAE6"/>
<path d="M140.007 43.4476L151.09 40.1413V38.9539L140.007 42.2602V43.4476Z" fill="#43BAE6"/>
<path d="M135.373 44.8215L137.632 44.1462V42.9587L135.373 43.634V44.8215Z" fill="#43BAE6"/>
<path d="M125.547 47.7553L133.58 45.357V44.1696L125.547 46.5678V47.7553Z" fill="#43BAE6"/>
<path d="M100.843 55.1363L113.789 51.2712V50.0837L100.843 53.9489V55.1363Z" fill="#43BAE6"/>
<path d="M117.608 50.1301L118.539 49.8507V48.6632L117.608 48.9426V50.1301Z" fill="#43BAE6"/>
<path d="M115.698 50.7124L116.606 50.433V49.2455L115.698 49.5249V50.7124Z" fill="#43BAE6"/>
<path d="M119.726 49.5015L123.73 48.3141V47.1266L119.726 48.3141V49.5015Z" fill="#43BAE6"/>
<path d="M71.4591 63.9375L72.3672 63.6581V62.4706L71.4591 62.75V63.9375Z" fill="#43BAE6"/>
<path d="M69.5267 64.4963L70.458 64.2169V63.0294L69.5267 63.3088V64.4963Z" fill="#43BAE6"/>
<path d="M73.5549 63.3089L77.583 62.0981V60.9106L73.5549 62.1214V63.3089Z" fill="#43BAE6"/>
<path d="M79.1192 61.6324L83.124 60.4449V59.2574L79.1192 60.4449V61.6324Z" fill="#43BAE6"/>
<path d="M148.831 43.5874L151.09 42.9122V41.7247L148.831 42.4V43.5874Z" fill="#43BAE6"/>
<path d="M139.005 46.5211L147.038 44.1229V42.9354L139.005 45.3337V46.5211Z" fill="#43BAE6"/>
<path d="M108.829 55.532L127.387 49.9905V48.803L108.829 54.3445V55.532Z" fill="#43BAE6"/>
<path d="M131.066 48.8729L131.997 48.6168V47.4293L131.066 47.6854V48.8729Z" fill="#00FFFF"/>
<path d="M129.156 49.4549L130.064 49.1755V47.988L129.156 48.2674V49.4549Z" fill="#43BAE6"/>
<path d="M133.185 48.2441L137.189 47.0566V45.8691L133.185 47.0566V48.2441Z" fill="#00FFFF"/>
<path d="M73.5549 66.0796L77.583 64.8689V63.6814L73.5549 64.8922V66.0796Z" fill="#43BAE6"/>
<path d="M126.386 51.8765L118.353 54.2747V55.4622L126.386 53.0639V51.8765Z" fill="#43BAE6"/>
<path d="M151.09 44.4955L138.144 48.3606V49.5481L151.09 45.683V44.4955Z" fill="#43BAE6"/>
<path d="M134.325 49.5016L133.394 49.781V50.9685L134.325 50.6891V49.5016Z" fill="#43BAE6"/>
<path d="M116.606 54.787L115.698 55.0664V56.2539L116.606 55.9745V54.787Z" fill="#43BAE6"/>
<path d="M136.235 48.9194L135.327 49.1988V50.3863L136.235 50.1069V48.9194Z" fill="#43BAE6"/>
<path d="M132.207 50.1302L128.202 51.3177V52.5052L132.207 51.3177V50.1302Z" fill="#00FFFF"/>
<path d="M82.2159 66.266L83.124 65.9866V64.7991L82.2159 65.0785V66.266Z" fill="#43BAE6"/>
<path d="M80.2835 66.8247L81.2148 66.5453V65.3578L80.2835 65.6372V66.8247Z" fill="#43BAE6"/>
<path d="M111.926 58.9548L105.523 60.8641V62.0516L111.926 60.1423V58.9548Z" fill="#43BAE6"/>
<path d="M116.561 57.5811L114.302 58.2563V59.4438L116.561 58.7685V57.5811Z" fill="#43BAE6"/>
<path d="M126.386 54.6472L118.353 57.0455V58.2329L126.386 55.8347V54.6472Z" fill="#43BAE6"/>
<path d="M151.09 47.2664L138.144 51.1315V52.319L151.09 48.4538V47.2664Z" fill="#43BAE6"/>
<path d="M134.325 52.2722L133.394 52.5516V53.7391L134.325 53.4597V52.2722Z" fill="#43BAE6"/>
<path d="M136.235 51.6902L135.327 51.9696V53.1571L136.235 52.8777V51.6902Z" fill="#43BAE6"/>
<path d="M132.207 52.901L128.202 54.0885V55.276L132.207 54.0885V52.901Z" fill="#43BAE6"/>
<path d="M71.4591 72.25L72.3672 71.9706V70.7831L71.4591 71.0625V72.25Z" fill="#43BAE6"/>
<path d="M73.5549 71.6213L77.583 70.4105V69.223L73.5549 70.4338V71.6213Z" fill="#43BAE6"/>
<path d="M79.1201 69.9448L82.2168 69.0367V67.8492L79.1201 68.7573V69.9448Z" fill="#43BAE6"/>
<path d="M140.007 54.3678L151.09 51.0382V49.8507L140.007 53.1803V54.3678Z" fill="#00FFFF"/>
<path d="M135.373 55.7416L137.632 55.0664V53.8789L135.373 54.5541V55.7416Z" fill="#43BAE6"/>
<path d="M125.547 58.6754L133.58 56.2772V55.0897L125.547 57.488V58.6754Z" fill="#43BAE6"/>
<path d="M100.843 66.0565L113.789 62.1914V61.0039L100.843 64.869V66.0565Z" fill="#43BAE6"/>
<path d="M117.608 61.0504L118.539 60.771V59.5835L117.608 59.8629V61.0504Z" fill="#43BAE6"/>
<path d="M115.698 61.6325L116.606 61.3531V60.1656L115.698 60.4451V61.6325Z" fill="#00FFFF"/>
<path d="M119.726 60.4217L123.73 59.2109V58.0234L119.726 59.2342V60.4217Z" fill="#00FFFF"/>
<path d="M71.4591 74.8345L72.3672 74.5783V73.3909L71.4591 73.647V74.8345Z" fill="#43BAE6"/>
<path d="M69.5267 75.4166L70.458 75.1372V73.9497L69.5267 74.2291V75.4166Z" fill="#00FFFF"/>
<path d="M73.5549 74.2058L77.583 73.0183V71.8308L73.5549 73.0183V74.2058Z" fill="#43BAE6"/>
<path d="M79.1192 72.5526L83.124 71.3651V70.1776L79.1192 71.3651V72.5526Z" fill="#00FFFF"/>
<path d="M148.831 54.4843L151.09 53.8091V52.6216L148.831 53.2968V54.4843Z" fill="#43BAE6"/>
<path d="M139.005 57.418L147.038 55.0198V53.8323L139.005 56.2305V57.418Z" fill="#43BAE6"/>
<path d="M108.829 66.4523L127.387 60.8874V59.7L108.829 65.2648V66.4523Z" fill="#43BAE6"/>
<path d="M131.066 59.7931L131.997 59.5137V58.3262L131.066 58.6056V59.7931Z" fill="#43BAE6"/>
<path d="M129.156 60.3752L130.064 60.0958V58.9083L129.156 59.1877V60.3752Z" fill="#43BAE6"/>
<path d="M133.185 59.1644L137.189 57.9769V56.7894L133.185 57.9769V59.1644Z" fill="#43BAE6"/>
<path d="M73.5549 76.9765L77.583 75.789V74.6016L73.5549 75.789V76.9765Z" fill="#00FFFF"/>
<path d="M126.386 62.7733L118.353 65.1716V66.359L126.386 63.9608V62.7733Z" fill="#43BAE6"/>
<path d="M151.09 55.3923L138.144 59.2575V60.4449L151.09 56.5798V55.3923Z" fill="#43BAE6"/>
<path d="M134.325 60.4218L133.394 60.6779V61.8654L134.325 61.6092V60.4218Z" fill="#43BAE6"/>
<path d="M116.606 65.7072L115.698 65.9866V67.174L116.606 66.8946V65.7072Z" fill="#43BAE6"/>
<path d="M136.235 59.8396L135.327 60.119V61.3065L136.235 61.0271V59.8396Z" fill="#43BAE6"/>
<path d="M132.207 61.0504L128.202 62.2379V63.4254L132.207 62.2379V61.0504Z" fill="#43BAE6"/>
<path d="M82.2159 77.1628L83.124 76.9067V75.7192L82.2159 75.9754V77.1628Z" fill="#43BAE6"/>
<path d="M80.2835 77.745L81.2148 77.4656V76.2781L80.2835 76.5575V77.745Z" fill="#43BAE6"/>
<path d="M111.926 69.875L105.523 71.7843V72.9718L111.926 71.0625V69.875Z" fill="#43BAE6"/>
<path d="M116.561 68.5012L114.302 69.1765V70.3639L116.561 69.6887V68.5012Z" fill="#43BAE6"/>
<path d="M126.386 65.5442L118.353 67.9424V69.1299L126.386 66.7317V65.5442Z" fill="#43BAE6"/>
<path d="M151.09 58.1632L138.144 62.0283V63.2158L151.09 59.3507V58.1632Z" fill="#00FFFF"/>
<path d="M134.325 63.1925L133.394 63.4486V64.6361L134.325 64.38V63.1925Z" fill="#43BAE6"/>
<path d="M136.235 62.6104L135.327 62.8898V64.0772L136.235 63.7978V62.6104Z" fill="#43BAE6"/>
<path d="M132.207 63.8212L128.202 65.0086V66.1961L132.207 65.0086V63.8212Z" fill="#43BAE6"/>
<path d="M71.4591 83.1467L72.3672 82.8906V81.7031L71.4591 81.9592V83.1467Z" fill="#43BAE6"/>
<path d="M73.5549 82.5181L77.583 81.3307V80.1432L73.5549 81.3307V82.5181Z" fill="#00FFFF"/>
<path d="M79.1201 80.8649L82.2168 79.9336V78.7461L79.1201 79.6774V80.8649Z" fill="#43BAE6"/>
<path d="M80.6094 82.0059L69.5262 85.3122V86.4996L80.6094 83.1933V82.0059Z" fill="#43BAE6"/>
<path d="M136.514 65.3113L123.568 69.1764V70.3639L136.514 66.4988V65.3113Z" fill="#00FFFF"/>
<path d="M119.727 70.3174L118.818 70.5968V71.7843L119.727 71.5049V70.3174Z" fill="#43BAE6"/>
<path d="M121.636 69.7354L120.728 70.0148V71.2022L121.636 70.9228V69.7354Z" fill="#43BAE6"/>
<path d="M117.631 70.946L113.603 72.1335V73.321L117.631 72.1335V70.946Z" fill="#43BAE6"/>
<path d="M149.181 61.516L148.273 61.7954V62.9829L149.181 62.7035V61.516Z" fill="#43BAE6"/>
<path d="M151.09 60.934L150.182 61.2134V62.4008L151.09 62.1214V60.934Z" fill="#43BAE6"/>
<path d="M147.062 62.1447L143.058 63.3554V64.5429L147.062 63.3321V62.1447Z" fill="#43BAE6"/>
<path d="M141.52 63.7979L137.515 65.0086V66.1961L141.52 64.9853V63.7979Z" fill="#43BAE6"/>
<path d="M140.007 68.3615L151.09 65.0552V63.8677L140.007 67.174V68.3615Z" fill="#43BAE6"/>
<path d="M135.373 69.7586L137.632 69.0834V67.8959L135.373 68.5711V69.7586Z" fill="#43BAE6"/>
<path d="M125.547 72.6923L133.58 70.294V69.1066L125.547 71.5048V72.6923Z" fill="#43BAE6"/>
<path d="M100.843 80.0733L113.789 76.2082V75.0208L100.843 78.8859V80.0733Z" fill="#43BAE6"/>
<path d="M117.608 75.0673L118.539 74.7879V73.6005L117.608 73.8799V75.0673Z" fill="#43BAE6"/>
<path d="M115.698 75.626L116.606 75.3699V74.1824L115.698 74.4385V75.626Z" fill="#43BAE6"/>
<path d="M119.726 74.4385L123.73 73.2278V72.0403L119.726 73.251V74.4385Z" fill="#43BAE6"/>
<path d="M71.4591 88.8513L72.3672 88.5719V87.3844L71.4591 87.6638V88.8513Z" fill="#43BAE6"/>
<path d="M69.5267 89.4333L70.458 89.1539V87.9664L69.5267 88.2458V89.4333Z" fill="#43BAE6"/>
<path d="M73.5549 88.2226L77.583 87.0351V85.8477L73.5549 87.0351V88.2226Z" fill="#43BAE6"/>
<path d="M79.1192 86.5694L83.124 85.3586V84.1711L79.1192 85.3819V86.5694Z" fill="#43BAE6"/>
<path d="M148.831 68.5013L151.09 67.826V66.6385L148.831 67.3138V68.5013Z" fill="#43BAE6"/>
<path d="M139.005 71.435L147.038 69.0367V67.8492L139.005 70.2475V71.435Z" fill="#43BAE6"/>
<path d="M108.829 80.469L127.387 74.9042V73.7167L108.829 79.2815V80.469Z" fill="#43BAE6"/>
<path d="M131.066 73.8099L131.997 73.5305V72.343L131.066 72.6224V73.8099Z" fill="#43BAE6"/>
<path d="M129.156 74.3919L130.064 74.1125V72.925L129.156 73.2045V74.3919Z" fill="#43BAE6"/>
<path d="M133.185 73.1812L137.189 71.9938V70.8063L133.185 71.9938V73.1812Z" fill="#43BAE6"/>
<path d="M73.5549 90.9934L77.583 89.8059V88.6184L73.5549 89.8059V90.9934Z" fill="#43BAE6"/>
<path d="M126.386 76.7903L118.353 79.1885V80.376L126.386 77.9778V76.7903Z" fill="#43BAE6"/>
<path d="M151.09 69.4093L138.144 73.2744V74.4619L151.09 70.5968V69.4093Z" fill="#43BAE6"/>
<path d="M134.325 74.4386L133.394 74.6947V75.8822L134.325 75.6261V74.4386Z" fill="#43BAE6"/>
<path d="M116.606 79.724L115.698 79.9801V81.1909L116.606 80.9115V79.724Z" fill="#43BAE6"/>
<path d="M136.235 73.8564L135.327 74.1358V75.3233L136.235 75.0439V73.8564Z" fill="#43BAE6"/>
<path d="M132.207 75.0673L128.202 76.2547V77.4422L132.207 76.2547V75.0673Z" fill="#43BAE6"/>
<path d="M82.2159 91.1797L83.124 90.9002V89.7128L82.2159 89.9922V91.1797Z" fill="#43BAE6"/>
<path d="M80.2835 91.7618L81.2148 91.4824V90.2949L80.2835 90.5743V91.7618Z" fill="#00FFFF"/>
<path d="M111.926 83.8918L105.523 85.8011V86.9886L111.926 85.0793V83.8918Z" fill="#00FFFF"/>
<path d="M116.561 82.4948L114.302 83.17V84.3575L116.561 83.6822V82.4948Z" fill="#43BAE6"/>
<path d="M126.386 79.561L118.353 81.9593V83.1468L126.386 80.7485V79.561Z" fill="#00FFFF"/>
<path d="M151.09 72.1801L138.144 76.0452V77.2327L151.09 73.3675V72.1801Z" fill="#00FFFF"/>
<path d="M134.325 77.2094L133.394 77.4655V78.6529L134.325 78.3968V77.2094Z" fill="#43BAE6"/>
<path d="M136.235 76.6272L135.327 76.9066V78.0941L136.235 77.8147V76.6272Z" fill="#00FFFF"/>
<path d="M132.207 77.838L128.202 79.0255V80.213L132.207 79.0255V77.838Z" fill="#00FFFF"/>
<path d="M71.4591 97.1636L72.3672 96.9074V95.72L71.4591 95.9761V97.1636Z" fill="#43BAE6"/>
<path d="M73.5549 96.535L77.583 95.3475V94.16L73.5549 95.3475V96.535Z" fill="#00FFFF"/>
<path d="M79.1201 94.8819L82.2168 93.9505V92.7631L79.1201 93.6944V94.8819Z" fill="#43BAE6"/>
<path opacity="0.3" d="M40.0025 197.936L88.4795 183.384C89.9696 182.941 90.9941 181.568 90.9941 180.008V83.9152C90.9941 81.5635 88.7123 79.8638 86.4538 80.539L37.9767 95.0914C36.4866 95.5338 35.4621 96.9076 35.4621 98.4676V194.537C35.4621 196.935 37.7439 198.612 40.0025 197.936Z" fill="#CDE2FF"/>
<path opacity="0.3" d="M34.4839 194.467L82.9609 179.915C84.4511 179.472 85.4756 178.098 85.4756 176.538V80.4458C85.4756 78.0941 83.1938 76.3944 80.9352 77.0696L32.4582 91.6221C30.968 92.0645 29.9435 93.4382 29.9435 94.9982V191.067C29.9435 193.442 32.2254 195.142 34.4839 194.467Z" fill="#CDE2FF"/>
<path d="M45.1938 203.268L94.0434 188.832C95.5336 188.39 98.3975 186.923 98.3975 185.386V89.4567C98.3975 87.105 94.4392 83.7289 90.5275 84.5205L43.1681 98.5141C41.678 98.9565 40.6768 100.33 40.6768 101.867V199.939C40.7 202.267 42.9586 203.943 45.1938 203.268Z" fill="url(#paint6_linear)"/>
<path opacity="0.5" d="M47.2907 202.803L95.3719 188.367C96.8621 187.924 97.8633 186.55 97.8633 185.014V89.7361C97.8633 87.3844 95.6047 85.708 93.3695 86.3832L45.2883 100.819C43.7981 101.262 42.7969 102.635 42.7969 104.172V199.45C42.7736 201.801 45.0322 203.478 47.2907 202.803Z" fill="#DEF6FE"/>
<path d="M47.8263 202.803L95.9075 188.367C97.3977 187.924 98.5153 186.574 98.3989 185.014V89.7361C98.3989 87.3844 96.1404 85.708 93.9051 86.3832L45.8239 100.819C44.3338 101.262 43.3325 102.635 43.3325 104.172V199.45C43.3325 201.801 45.5911 203.478 47.8263 202.803Z" fill="url(#paint7_linear)"/>
<path d="M43.3322 196.353L98.4219 179.821V93.9272L43.3322 110.459V196.353Z" fill="#343EAE"/>
<path opacity="0.5" d="M64.1945 101.215L74.7188 98.2114C75.3707 98.0251 75.9062 97.3499 75.9062 96.6979C75.9062 96.046 75.3707 95.6734 74.7188 95.8597L64.1945 98.8633C63.5425 99.0496 63.007 99.7248 63.007 100.377C63.007 101.029 63.5425 101.401 64.1945 101.215Z" fill="#343EAF"/>
<g opacity="0.5">
<path opacity="0.5" d="M94.4635 89.7128C94.4635 90.1785 94.8594 90.4579 95.325 90.3182C95.7907 90.1785 96.1865 89.6895 96.1865 89.2006C96.1865 88.7349 95.7907 88.4555 95.325 88.5952C94.8361 88.7349 94.4635 89.2238 94.4635 89.7128Z" fill="#343EAF"/>
<path opacity="0.5" d="M91.8786 90.4579C91.8786 90.9236 92.2744 91.203 92.7401 91.0633C93.2057 90.9236 93.6016 90.4346 93.6016 89.9457C93.6016 89.48 93.2057 89.2006 92.7401 89.3403C92.2511 89.48 91.8786 89.9689 91.8786 90.4579Z" fill="#343EAF"/>
<path opacity="0.5" d="M89.2702 91.1797C89.2702 91.6454 89.666 91.9248 90.1316 91.7851C90.5973 91.6454 90.9932 91.1564 90.9932 90.6675C90.9932 90.2018 90.5973 89.9224 90.1316 90.0621C89.666 90.2251 89.2702 90.714 89.2702 91.1797Z" fill="#343EAF"/>
</g>
<path opacity="0.3" d="M19.9781 157.376L77.4893 140.285V105.802L19.9781 122.892V157.376Z" fill="#F5F5F5"/>
<path opacity="0.3" d="M47.1509 180.427L104.662 163.336V142.218L47.1509 159.308V180.427Z" fill="white"/>
<defs>
<linearGradient id="paint0_linear" x1="230.555" y1="136.67" x2="61.8791" y2="181.592" gradientUnits="userSpaceOnUse">
<stop stop-color="#C7DDFF"/>
<stop offset="1" stop-color="#5878FF"/>
</linearGradient>
<linearGradient id="paint1_linear" x1="170.728" y1="77.7236" x2="47.0567" y2="77.7236" gradientUnits="userSpaceOnUse">
<stop stop-color="#C7DDFF"/>
<stop offset="1" stop-color="#5878FF"/>
</linearGradient>
<linearGradient id="paint2_linear" x1="111.198" y1="26.9778" x2="35.5355" y2="26.9778" gradientUnits="userSpaceOnUse">
<stop/>
<stop offset="1" stop-color="#4D4D4D"/>
</linearGradient>
<linearGradient id="paint3_linear" x1="111.198" y1="26.9778" x2="35.5355" y2="26.9778" gradientUnits="userSpaceOnUse">
<stop stop-color="#5878FF"/>
<stop offset="1" stop-color="white"/>
</linearGradient>
<linearGradient id="paint4_linear" x1="111.198" y1="19.3702" x2="35.5355" y2="19.3702" gradientUnits="userSpaceOnUse">
<stop/>
<stop offset="1" stop-color="#4D4D4D"/>
</linearGradient>
<linearGradient id="paint5_linear" x1="111.197" y1="19.3702" x2="35.5345" y2="19.3702" gradientUnits="userSpaceOnUse">
<stop stop-color="#5878FF"/>
<stop offset="1" stop-color="white"/>
</linearGradient>
<linearGradient id="paint6_linear" x1="96.2408" y1="135.792" x2="40.0475" y2="135.792" gradientUnits="userSpaceOnUse">
<stop stop-color="#DEF6FE"/>
<stop offset="1" stop-color="#C7DDFF"/>
</linearGradient>
<linearGradient id="paint7_linear" x1="111.099" y1="133.11" x2="35.8708" y2="133.11" gradientUnits="userSpaceOnUse">
<stop stop-color="#A2BCFF"/>
<stop offset="0.1087" stop-color="#99B4FF"/>
<stop offset="0.7022" stop-color="#6B8AFF"/>
<stop offset="1" stop-color="#597AFF"/>
</linearGradient>
</defs>
</svg>
