<svg width="99" height="102" viewBox="0 0 99 102" fill="none" xmlns="http://www.w3.org/2000/svg">
<path d="M87.8852 1.54442V44.9578C87.8852 45.8105 87.1935 46.5029 86.3408 46.5029H12.6587C11.8067 46.5029 11.1143 45.8105 11.1143 44.9578V1.54442C11.1143 0.691658 11.8067 0 12.6587 0H86.3408C87.1935 0 87.8852 0.691658 87.8852 1.54442Z" fill="#E3F4FF"/>
<path d="M87.8851 1.54442V44.9578C87.8851 45.8105 87.1935 46.5029 86.3407 46.5029H81.7578C82.6106 46.5029 83.3022 45.8105 83.3022 44.9578V1.54442C83.3022 0.691658 82.6106 0 81.7578 0H86.3407C87.1935 0 87.8851 0.691658 87.8851 1.54442Z" fill="#BDDFF4"/>
<path d="M87.8852 1.54442V11.0557H11.1143V1.54442C11.1143 0.691658 11.8067 0 12.6587 0H86.3408C87.1935 0 87.8852 0.691658 87.8852 1.54442Z" fill="#6583FE"/>
<path d="M87.8851 1.54442V11.0557H83.3022V1.54442C83.3022 0.691658 82.6106 0 81.7578 0H86.3407C87.1935 0 87.8851 0.691658 87.8851 1.54442Z" fill="#8399FE"/>
<path d="M93.0898 21.2245V70.5243C93.0898 71.4925 92.3036 72.2779 91.3355 72.2779H7.6635C6.69533 72.2779 5.90918 71.4925 5.90918 70.5243V21.2245C5.90918 20.2564 6.69533 19.4702 7.6635 19.4702H91.3355C92.3036 19.4702 93.0898 20.2564 93.0898 21.2245Z" fill="#E3F4FF"/>
<path d="M93.09 21.2245V70.5243C93.09 71.4925 92.3039 72.2779 91.3357 72.2779H86.1309C87.099 72.2779 87.8852 71.4925 87.8852 70.5243V21.2245C87.8852 20.2564 87.0998 19.4702 86.1309 19.4702H91.3357C92.3039 19.4702 93.09 20.2564 93.09 21.2245Z" fill="#BDDFF4"/>
<path d="M93.09 21.2245V32.0246H5.91016V21.2245C5.91016 20.2564 6.69553 19.4702 7.6637 19.4702H91.3357C92.3039 19.4702 93.09 20.2564 93.09 21.2245Z" fill="#FDB659"/>
<path d="M93.09 21.2245V32.0246H87.8852V21.2245C87.8852 20.2564 87.0998 19.4702 86.1309 19.4702H91.3357C92.3039 19.4702 93.09 20.2564 93.09 21.2245Z" fill="#FD9E28"/>
<path d="M99 43.5434V99.5274C99 100.627 98.1077 101.52 97.0079 101.52H1.9921C0.892262 101.52 0 100.627 0 99.5274V43.5434C0 42.4436 0.892262 41.5513 1.9921 41.5513H97.0079C98.1077 41.5513 99 42.4444 99 43.5434Z" fill="#E3F4FF"/>
<path d="M99.0004 43.5434V99.5274C99.0004 100.627 98.1082 101.52 97.0083 101.52H91.0986C92.1977 101.52 93.0907 100.627 93.0907 99.5274V43.5434C93.0907 42.4436 92.1977 41.5513 91.0986 41.5513H97.0083C98.1082 41.5513 99.0004 42.4444 99.0004 43.5434Z" fill="#BDDFF4"/>
<path d="M99 43.5434V55.8082H0V43.5434C0 42.4436 0.892262 41.5513 1.9921 41.5513H97.0079C98.1077 41.5513 99 42.4444 99 43.5434Z" fill="#FF7EB8"/>
<path d="M98.9994 43.5435V55.8082H93.0898V43.5435C93.0898 42.4437 92.1967 41.5514 91.0977 41.5514H97.0073C98.1072 41.5514 98.9994 42.4444 98.9994 43.5435Z" fill="#FF7EB8"/>
<path d="M78.1173 48.4687H74.532C73.6855 48.4687 73 47.7833 73 46.9367C73 46.0909 73.6855 45.4047 74.532 45.4047H78.1173C78.9631 45.4047 79.6494 46.0909 79.6494 46.9367C79.6494 47.7833 78.9631 48.4687 78.1173 48.4687Z" fill="#FF7EB8"/>
<path d="M78.1173 52.1873H74.532C73.6855 52.1873 73 51.501 73 50.6553C73 49.8087 73.6855 49.1232 74.532 49.1232H78.1173C78.9631 49.1232 79.6494 49.8087 79.6494 50.6553C79.6494 51.501 78.9631 52.1873 78.1173 52.1873Z" fill="#FF7EB8"/>
<path d="M88.5737 48.6546L88.9687 48.2604C89.5666 47.6624 89.5666 46.6919 88.9687 46.094C88.37 45.4953 87.4002 45.4953 86.8015 46.094L86.4073 46.4882L86.0131 46.094C85.4143 45.4953 84.4446 45.4953 83.8459 46.094C83.248 46.6919 83.248 47.6616 83.8459 48.2604L84.2409 48.6546L83.8459 49.0496C83.248 49.6475 83.248 50.6173 83.8459 51.216C84.1457 51.5149 84.5376 51.6644 84.9295 51.6644C85.3214 51.6644 85.7133 51.5149 86.0123 51.216L86.4073 50.821L86.8015 51.216C87.1005 51.5149 87.4932 51.6644 87.8851 51.6644C88.277 51.6644 88.6689 51.5149 88.9679 51.216C89.5666 50.6173 89.5666 49.6475 88.9679 49.0496L88.5737 48.6546Z" fill="#FF7EB8"/>
<path d="M84.42 25.747L84.6314 25.5356C85.2301 24.9377 85.2301 23.9679 84.6314 23.3692C84.0335 22.7713 83.0638 22.7713 82.4651 23.3692L82.2536 23.5807L82.0422 23.3692C81.4434 22.7713 80.4737 22.7713 79.8758 23.3692C79.2771 23.9672 79.2771 24.9377 79.8758 25.5356L80.0872 25.747L79.8758 25.9593C79.2771 26.5572 79.2771 27.5269 79.8758 28.1256C80.1748 28.4246 80.5667 28.5741 80.9586 28.5741C81.3505 28.5741 81.7432 28.4246 82.0422 28.1256L82.2536 27.9134L82.4651 28.1256C82.764 28.4246 83.1559 28.5741 83.5479 28.5741C83.9405 28.5741 84.3325 28.4246 84.6314 28.1256C85.2301 27.5269 85.2301 26.5572 84.6314 25.9593L84.42 25.747Z" fill="#FDB659"/>
<path d="M78.1255 3.41178C77.5431 2.8301 76.6105 2.81539 76.0095 3.36608C75.4077 2.81539 74.4752 2.8301 73.8935 3.41178C73.311 3.99345 73.2971 4.92676 73.847 5.5278C73.2971 6.12884 73.311 7.06138 73.8935 7.64383C74.1925 7.94279 74.5844 8.09228 74.9763 8.09228C75.3473 8.09228 75.7167 7.95674 76.0087 7.68952C76.3015 7.95674 76.671 8.09228 77.042 8.09228C77.4339 8.09228 77.8258 7.94279 78.1248 7.64383C78.7064 7.06138 78.7212 6.12884 78.1705 5.5278C78.7212 4.92676 78.7072 3.99345 78.1255 3.41178Z" fill="#6583FE"/>
<path d="M30.7604 27.279H15.9041C15.0583 27.279 14.3721 26.5936 14.3721 25.747C14.3721 24.9012 15.0583 24.2158 15.9041 24.2158H30.7604C31.6062 24.2158 32.2924 24.9012 32.2924 25.747C32.2924 26.5936 31.6062 27.279 30.7604 27.279Z" fill="white"/>
<path d="M36.6122 7.0599H21.7566C20.9101 7.0599 20.2246 6.37367 20.2246 5.52788C20.2246 4.68209 20.9101 3.99585 21.7566 3.99585H36.6122C37.4587 3.99585 38.1442 4.68209 38.1442 5.52788C38.1442 6.37367 37.4587 7.0599 36.6122 7.0599Z" fill="white"/>
<path d="M26.0565 50.5468H11.201C10.3544 50.5468 9.66895 49.8605 9.66895 49.0148C9.66895 48.1682 10.3544 47.4827 11.201 47.4827H26.0565C26.9031 47.4827 27.5885 48.1682 27.5885 49.0148C27.5885 49.8605 26.9031 50.5468 26.0565 50.5468Z" fill="white"/>
<path d="M24.6011 69.529C24.6011 72.6093 22.104 75.1064 19.0237 75.1064C15.9434 75.1064 13.4463 72.6093 13.4463 69.529C13.4463 66.4487 15.9434 63.9516 19.0237 63.9516C22.104 63.9516 24.6011 66.4487 24.6011 69.529Z" fill="#FF7EB8"/>
<path d="M24.6011 87.1985C24.6011 90.2788 22.104 92.7759 19.0237 92.7759C15.9434 92.7759 13.4463 90.2788 13.4463 87.1985C13.4463 84.1182 15.9434 81.6211 19.0237 81.6211C22.104 81.6211 24.6011 84.1182 24.6011 87.1985Z" fill="#FF7EB8"/>
<path d="M38.1457 67.9234H32.7674C31.9216 67.9234 31.2354 67.2372 31.2354 66.3914C31.2354 65.5448 31.9216 64.8594 32.7674 64.8594H38.1457C38.9923 64.8594 39.6778 65.5456 39.6778 66.3914C39.6778 67.238 38.9923 67.9234 38.1457 67.9234Z" fill="#93C0D1"/>
<path d="M75.3953 72.6093H32.7674C31.9216 72.6093 31.2354 71.9231 31.2354 71.0773C31.2354 70.2315 31.9216 69.5453 32.7674 69.5453H75.3953C76.2419 69.5453 76.9274 70.2315 76.9274 71.0773C76.9274 71.9231 76.2419 72.6093 75.3953 72.6093Z" fill="#93C0D1"/>
<path d="M38.1457 86.3875H32.7674C31.9216 86.3875 31.2354 85.702 31.2354 84.8555C31.2354 84.0097 31.9216 83.3234 32.7674 83.3234H38.1457C38.9923 83.3234 39.6778 84.0097 39.6778 84.8555C39.6778 85.702 38.9923 86.3875 38.1457 86.3875Z" fill="#93C0D1"/>
<path d="M75.3953 91.0735H32.7674C31.9216 91.0735 31.2354 90.388 31.2354 89.5414C31.2354 88.6956 31.9216 88.0094 32.7674 88.0094H75.3953C76.2419 88.0094 76.9274 88.6956 76.9274 89.5414C76.9274 90.388 76.2419 91.0735 75.3953 91.0735Z" fill="#93C0D1"/>
</svg>
