<svg width="87" height="93" viewBox="0 0 87 93" fill="none" xmlns="http://www.w3.org/2000/svg">
<path d="M72.0697 34.8387H68.2505V24.3517H72.0697C73.2451 24.3517 74.1979 25.3046 74.1979 26.48V32.7106C74.1979 33.8858 73.2451 34.8387 72.0697 34.8387Z" fill="#DF73C1"/>
<path d="M72.0697 45.3256H68.2505V34.8386H72.0697C73.2451 34.8386 74.1979 35.7915 74.1979 36.9669V43.1975C74.1979 44.3728 73.2451 45.3256 72.0697 45.3256Z" fill="#365E7D"/>
<path d="M72.0697 55.8127H68.2505V45.3257H72.0697C73.2451 45.3257 74.1979 46.2786 74.1979 47.454V53.6846C74.1979 54.8598 73.2451 55.8127 72.0697 55.8127Z" fill="#B3E59F"/>
<path d="M72.0697 66.2996H68.2505V55.8126H72.0697C73.2451 55.8126 74.1979 56.7655 74.1979 57.9409V64.1715C74.1979 65.3468 73.2451 66.2996 72.0697 66.2996Z" fill="#FFE07D"/>
<path d="M68.2328 86.1175L5.76172 87.082V5.91785C5.76172 2.64959 8.41131 0 11.6796 0H65.7224C67.109 0 68.233 1.12399 68.233 2.51064V86.1175H68.2328Z" fill="#E7A561"/>
<path d="M65.7222 0H61.2059C62.5925 0 63.7165 1.12399 63.7165 2.51064V86.1176L5.76172 87.0124V87.0822L68.2328 86.1176V2.51064C68.2327 1.12399 67.1087 0 65.7222 0V0Z" fill="#E49542"/>
<path d="M68.2328 81.1641H11.6796C8.41113 81.1641 5.76172 83.8137 5.76172 87.0819C5.76172 90.3504 8.41131 92.9998 11.6796 92.9998H64.7773C66.6858 92.9998 68.2328 91.4527 68.2328 89.5442V81.1641Z" fill="#F9F6F9"/>
<path d="M63.7163 81.1641V93H64.7773C66.6856 93 68.2328 91.4529 68.2328 89.5444V81.1641H63.7163Z" fill="#DDDAEC"/>
<path d="M62.6004 88.4855H13.8809C13.1057 88.4855 12.4775 87.8573 12.4775 87.0822C12.4775 86.3071 13.1058 85.6788 13.8809 85.6788H62.6004C63.3756 85.6788 64.0037 86.3071 64.0037 87.0822C64.0037 87.8573 63.3756 88.4855 62.6004 88.4855Z" fill="#D0CEE7"/>
<path d="M44.8061 41.8221L41.1753 45.4529C40.6489 45.9793 39.8642 46.157 39.166 45.8987C35.8808 44.6837 32.2052 41.0077 30.9913 37.7241C30.7331 37.0261 30.911 36.2414 31.4372 35.7152L35.0682 32.0842C35.9266 31.2258 35.8029 29.8037 34.8128 29.1011C32.2764 27.3014 30.119 25.1764 28.3716 22.6994C27.6689 21.7032 26.2433 21.5719 25.3813 22.434L20.8784 26.9372C19.5308 28.2848 18.8395 30.1539 18.9855 32.054C19.0695 33.1439 19.4276 34.1941 20.0211 35.1121C26.079 44.4846 33.3466 51.7648 41.8241 56.9524C42.7078 57.4932 43.7068 57.8179 44.7398 57.8975L44.8364 57.905C46.7366 58.0512 48.6057 57.3597 49.9533 56.0121L54.4563 51.509C55.3184 50.647 55.1872 49.2214 54.1909 48.5187C51.7139 46.7713 49.5889 44.6139 47.7892 42.0775C47.0866 41.0874 45.6645 40.9637 44.8061 41.8221Z" fill="#365E7D"/>
<path d="M31.4373 35.7155L29.8696 37.2832C29.3434 37.8094 29.1655 38.5941 29.4236 39.2921C30.6375 42.5755 34.313 46.2517 37.5984 47.4667C38.2966 47.725 39.0813 47.5473 39.6077 47.0209L41.1754 45.4532C40.649 45.9796 39.8643 46.1572 39.1661 45.899C35.881 44.684 32.2053 41.0079 30.9914 37.7244C30.7333 37.0264 30.9109 36.2417 31.4373 35.7155Z" fill="#2B4D66"/>
<path d="M35.0683 32.0846C35.9268 31.2261 35.8031 29.8041 34.813 29.1015C32.2765 27.3018 30.1192 25.1768 28.3718 22.6997C27.669 21.7036 26.2435 21.5723 25.3814 22.4344L22.8125 25.0033L32.481 34.6718L35.0683 32.0846Z" fill="#9DC6FB"/>
<path d="M44.806 41.8223L42.2188 44.4096L51.8873 54.0781L54.4562 51.5092C55.3183 50.6471 55.187 49.2216 54.1909 48.5188C51.7138 46.7715 49.5888 44.6141 47.7891 42.0777C47.0865 41.0876 45.6645 40.9639 44.806 41.8223Z" fill="#9DC6FB"/>
<path d="M34.813 29.1015C32.2765 27.3018 30.1192 25.1768 28.3718 22.6997C27.669 21.7036 26.2435 21.5723 25.3814 22.4344L22.8125 25.0033L23.8137 24.0021C24.6758 23.14 26.1013 23.2712 26.8041 24.2675C28.5514 26.7445 30.7088 28.8695 33.2452 30.6692C34.2352 31.3716 34.3588 32.7937 33.5006 33.6521L35.0682 32.0846C35.9268 31.2261 35.8031 29.8041 34.813 29.1015Z" fill="#80B4FB"/>
<path d="M47.7891 42.0777C47.0865 41.0876 45.6645 40.9639 44.806 41.8223L43.2383 43.39C44.0967 42.5316 45.5188 42.6553 46.2214 43.6454C48.0211 46.1819 50.1461 48.3392 52.6231 50.0866C53.6192 50.7894 53.7505 52.2149 52.8885 53.0769L51.8873 54.0781L54.4562 51.5092C55.3183 50.6471 55.187 49.2216 54.1908 48.5188C51.7138 46.7715 49.5888 44.6141 47.7891 42.0777Z" fill="#80B4FB"/>
<path d="M32.481 36.0751C32.1219 36.0751 31.7627 35.938 31.4886 35.6641L21.8202 25.9957C21.2722 25.4475 21.2722 24.5591 21.8202 24.0107C22.3684 23.4629 23.2568 23.4629 23.8052 24.0107L33.4735 33.6791C34.0215 34.2273 34.0215 35.1157 33.4735 35.6641C33.1994 35.9382 32.8401 36.0751 32.481 36.0751Z" fill="#2B4D66"/>
<path d="M51.8873 55.4814C51.5282 55.4814 51.1689 55.3442 50.8948 55.0703L41.2264 45.4019C40.6784 44.8538 40.6784 43.9653 41.2264 43.417C41.7746 42.8691 42.663 42.8691 43.2114 43.417L52.8798 53.0853C53.4278 53.6335 53.4278 54.5219 52.8798 55.0703C52.6057 55.3444 52.2464 55.4814 51.8873 55.4814Z" fill="#2B4D66"/>
<path d="M85.2916 27.1751H66.9237C66.6387 27.1751 66.3639 27.2814 66.1528 27.473L61.3962 31.7944C60.6597 32.4636 59.479 31.941 59.479 30.946V27.1751V8.96457C59.479 8.33137 59.9923 7.81824 60.6253 7.81824H85.2916C85.9248 7.81824 86.4379 8.33155 86.4379 8.96457V26.0288C86.4379 26.662 85.9246 27.1751 85.2916 27.1751Z" fill="#9DC6FB"/>
<path d="M85.2916 7.81824H80.6479C81.281 7.81824 81.7943 8.33155 81.7943 8.96457V26.0288C81.7943 26.662 81.281 27.1751 80.6479 27.1751H85.2916C85.9248 27.1751 86.4379 26.6618 86.4379 26.0288V8.96457C86.4379 8.33155 85.9246 7.81824 85.2916 7.81824Z" fill="#80B4FB"/>
<path d="M77.97 16.1697H67.9478C67.1725 16.1697 66.5444 15.5415 66.5444 14.7664C66.5444 13.9911 67.1727 13.363 67.9478 13.363H77.97C78.7452 13.363 79.3733 13.9913 79.3733 14.7664C79.3733 15.5415 78.7451 16.1697 77.97 16.1697Z" fill="#2B4D66"/>
<path d="M77.9695 21.6304H67.9473C67.1721 21.6304 66.5439 21.0021 66.5439 20.2271C66.5439 19.4518 67.1722 18.8237 67.9473 18.8237H77.9695C78.7447 18.8237 79.3729 19.452 79.3729 20.2271C79.3729 21.0021 78.7446 21.6304 77.9695 21.6304Z" fill="#2B4D66"/>
<path d="M51.9242 13.6176H22.0703C21.1717 13.6176 20.4434 12.8892 20.4434 11.9906V8.73889C20.4434 7.84032 21.1717 7.11194 22.0703 7.11194H51.9242C52.8228 7.11194 53.5512 7.84032 53.5512 8.73889V11.9906C53.5512 12.8892 52.8228 13.6176 51.9242 13.6176Z" fill="#365E7D"/>
<path d="M51.9241 7.11194H48.4155C49.3141 7.11194 50.0425 7.84032 50.0425 8.73889V11.9906C50.0425 12.8892 49.3141 13.6176 48.4155 13.6176H51.9243C52.8229 13.6176 53.5512 12.8892 53.5512 11.9906V8.73889C53.5511 7.8405 52.8227 7.11194 51.9241 7.11194Z" fill="#2B4D66"/>
<path d="M10.0636 17.1862C9.28837 17.1862 8.66026 16.5579 8.66026 15.7828C8.66026 14.1691 7.34736 12.856 5.73349 12.856C4.11961 12.856 2.80671 14.1691 2.80671 15.7828C2.80671 16.558 2.17842 17.1862 1.40336 17.1862C0.628295 17.1862 0 16.5579 0 15.7828C0 12.6213 2.57203 10.0493 5.73349 10.0493C8.89494 10.0493 11.467 12.6213 11.467 15.7828C11.467 16.5579 10.8387 17.1862 10.0636 17.1862Z" fill="#FFE07D"/>
<path d="M10.0636 24.9816C9.28837 24.9816 8.66026 24.3533 8.66026 23.5782C8.66026 21.9645 7.34736 20.6514 5.73349 20.6514C4.11961 20.6514 2.80671 21.9643 2.80671 23.5782C2.80671 24.3535 2.17842 24.9816 1.40336 24.9816C0.628295 24.9816 0 24.3533 0 23.5782C0 20.4168 2.57203 17.8447 5.73349 17.8447C8.89494 17.8447 11.467 20.4168 11.467 23.5782C11.467 24.3533 10.8387 24.9816 10.0636 24.9816Z" fill="#FFE07D"/>
<path d="M10.0636 32.7769C9.28837 32.7769 8.66026 32.1486 8.66026 31.3735C8.66026 29.7598 7.34736 28.4467 5.73349 28.4467C4.11961 28.4467 2.80671 29.7596 2.80671 31.3735C2.80671 32.1487 2.17842 32.7769 1.40336 32.7769C0.628295 32.7769 0 32.1486 0 31.3735C0 28.212 2.57203 25.64 5.73349 25.64C8.89494 25.64 11.467 28.212 11.467 31.3735C11.467 32.1486 10.8387 32.7769 10.0636 32.7769Z" fill="#FFE07D"/>
<path d="M10.0636 40.5724C9.28837 40.5724 8.66026 39.9441 8.66026 39.169C8.66026 37.5553 7.34736 36.2423 5.73349 36.2423C4.11961 36.2423 2.80671 37.5552 2.80671 39.169C2.80671 39.9443 2.17842 40.5724 1.40336 40.5724C0.628295 40.5724 0 39.9441 0 39.169C0 36.0076 2.57203 33.4355 5.73349 33.4355C8.89494 33.4355 11.467 36.0076 11.467 39.169C11.467 39.9441 10.8387 40.5724 10.0636 40.5724Z" fill="#FFE07D"/>
<path d="M10.0636 48.3677C9.28837 48.3677 8.66026 47.7394 8.66026 46.9643C8.66026 45.3506 7.34736 44.0375 5.73349 44.0375C4.11961 44.0375 2.80671 45.3504 2.80671 46.9643C2.80671 47.7396 2.17842 48.3677 1.40336 48.3677C0.628295 48.3677 0 47.7394 0 46.9643C0 43.8029 2.57203 41.2308 5.73349 41.2308C8.89494 41.2308 11.467 43.8029 11.467 46.9643C11.467 47.7394 10.8387 48.3677 10.0636 48.3677Z" fill="#FFE07D"/>
<path d="M10.0636 56.1631C9.28837 56.1631 8.66026 55.5348 8.66026 54.7597C8.66026 53.146 7.34736 51.833 5.73349 51.833C4.11961 51.833 2.80671 53.1459 2.80671 54.7597C2.80671 55.535 2.17842 56.1631 1.40336 56.1631C0.628295 56.1631 0 55.5348 0 54.7597C0 51.5983 2.57203 49.0262 5.73349 49.0262C8.89494 49.0262 11.467 51.5983 11.467 54.7597C11.467 55.5348 10.8387 56.1631 10.0636 56.1631Z" fill="#FFE07D"/>
<path d="M10.0636 63.9583C9.28837 63.9583 8.66026 63.33 8.66026 62.555C8.66026 60.9411 7.34736 59.628 5.73349 59.628C4.11961 59.628 2.80671 60.9409 2.80671 62.555C2.80671 63.3302 2.17842 63.9583 1.40336 63.9583C0.628295 63.9583 0 63.33 0 62.555C0 59.3935 2.57203 56.8213 5.73349 56.8213C8.89494 56.8213 11.467 59.3935 11.467 62.555C11.467 63.33 10.8387 63.9583 10.0636 63.9583Z" fill="#FFE07D"/>
<path d="M10.0636 71.7537C9.28837 71.7537 8.66026 71.1254 8.66026 70.3503C8.66026 68.7366 7.34736 67.4235 5.73349 67.4235C4.11961 67.4235 2.80671 68.7364 2.80671 70.3503C2.80671 71.1256 2.17842 71.7537 1.40336 71.7537C0.628295 71.7537 0 71.1254 0 70.3503C0 67.1889 2.57203 64.6168 5.73349 64.6168C8.89494 64.6168 11.467 67.1889 11.467 70.3503C11.467 71.1254 10.8387 71.7537 10.0636 71.7537Z" fill="#FFE07D"/>
<path d="M51.0303 66.9523H22.9639C22.1887 66.9523 21.5605 66.324 21.5605 65.549C21.5605 64.7737 22.1888 64.1456 22.9639 64.1456H51.0303C51.8055 64.1456 52.4336 64.7739 52.4336 65.549C52.4336 66.324 51.8053 66.9523 51.0303 66.9523Z" fill="#DF73C1"/>
<path d="M45.4167 73.9992H28.5777C27.8024 73.9992 27.1743 73.3709 27.1743 72.5959C27.1743 71.8206 27.8026 71.1925 28.5777 71.1925H45.4167C46.1919 71.1925 46.82 71.8208 46.82 72.5959C46.8202 73.3709 46.1919 73.9992 45.4167 73.9992Z" fill="#DF73C1"/>
</svg>
