<svg width="93" height="93" viewBox="0 0 93 93" fill="none" xmlns="http://www.w3.org/2000/svg">
<path d="M76.818 9.71777V83.2822C76.818 88.6406 72.4664 93 67.1182 93H25.7862C20.438 93 16.0864 88.6406 16.0864 83.2822V9.71777C16.0864 4.35938 20.438 0 25.7862 0H67.118C72.4664 0 76.818 4.35938 76.818 9.71777Z" fill="#56788B"/>
<path d="M76.8179 9.71777V83.2822C76.8179 88.6406 72.4663 93 67.1181 93H63.4873C68.8355 93 73.1871 88.6406 73.1871 83.2822V9.71777C73.1871 4.35938 68.8355 0 63.4873 0H67.1181C72.4663 0 76.8179 4.35938 76.8179 9.71777Z" fill="#415E6F"/>
<path d="M71.3788 9.49254V83.5075C71.3788 85.8869 69.4473 87.8232 67.0709 87.8232H25.8334C23.457 87.8232 21.5254 85.8869 21.5254 83.5075V9.49254C21.5254 7.11305 23.457 5.17676 25.8334 5.17676H30.1377C30.7277 5.17676 31.2524 5.5582 31.4339 6.12129L32.4996 9.4326C32.7646 10.2554 33.5198 10.8076 34.3821 10.8076H58.5218C59.3822 10.8076 60.1393 10.2554 60.4043 9.4326L61.47 6.12129C61.6514 5.5582 62.1744 5.17676 62.7662 5.17676H67.0705C69.4473 5.17676 71.3788 7.11305 71.3788 9.49254Z" fill="#D9F0F4"/>
<path d="M71.3792 9.49254V83.5075C71.3792 85.8869 69.4477 87.8232 67.0712 87.8232H63.4404C65.8168 87.8232 67.7484 85.8869 67.7484 83.5075V9.49254C67.7484 7.11305 65.8168 5.17676 63.4404 5.17676H67.0712C69.4477 5.17676 71.3792 7.11305 71.3792 9.49254Z" fill="#BAE1E5"/>
<path d="M53.8252 3.99329H39.0784C38.3264 3.99329 37.7168 4.60324 37.7168 5.35559C37.7168 6.10795 38.3264 6.7179 39.0784 6.7179H53.8252C54.5772 6.7179 55.1868 6.10795 55.1868 5.35559C55.1868 4.60324 54.5772 3.99329 53.8252 3.99329Z" fill="#415E6F"/>
<path d="M53.8252 78.9631H39.0784C38.3264 78.9631 37.7168 79.5731 37.7168 80.3254C37.7168 81.0778 38.3264 81.6877 39.0784 81.6877H53.8252C54.5772 81.6877 55.1868 81.0778 55.1868 80.3254C55.1868 79.5731 54.5772 78.9631 53.8252 78.9631Z" fill="#56788B"/>
<path d="M31.1799 21.9239V35.6596C31.1799 37.9555 29.3137 39.8246 27.0207 39.8246H9.36394L2.18568 45.2884C1.94428 45.4736 1.65384 45.5663 1.3614 45.5663C1.15451 45.5663 0.947437 45.5209 0.756896 45.4246C0.294076 45.1957 0 44.7216 0 44.204V21.9239C0 19.628 1.86618 17.7589 4.15921 17.7589H27.0209C29.3137 17.7589 31.1799 19.628 31.1799 21.9239Z" fill="#4DD4F7"/>
<path d="M31.1797 21.9239V35.6596C31.1797 37.9555 29.3135 39.8246 27.0205 39.8246H23.3896C25.6825 39.8246 27.5489 37.9555 27.5489 35.6596V21.9239C27.5489 19.628 25.6827 17.7589 23.3896 17.7589H27.0205C29.3135 17.7589 31.1797 19.628 31.1797 21.9239Z" fill="#00C2F3"/>
<path d="M22.8406 24.2388H8.33863C7.58664 24.2388 6.97705 24.8487 6.97705 25.6011C6.97705 26.3534 7.58664 26.9634 8.33863 26.9634H22.8405C23.5924 26.9634 24.202 26.3534 24.202 25.6011C24.202 24.8487 23.5924 24.2388 22.8406 24.2388Z" fill="white"/>
<path d="M21.0279 30.4146H8.33863C7.58664 30.4146 6.97705 31.0245 6.97705 31.7769C6.97705 32.5292 7.58664 33.1392 8.33863 33.1392H21.0279C21.7799 33.1392 22.3894 32.5292 22.3894 31.7769C22.3894 31.0245 21.7799 30.4146 21.0279 30.4146Z" fill="white"/>
<path d="M87.5517 25.4388V67.6085C87.5517 68.3604 86.9414 68.9708 86.1896 68.9708H56.1891L51.0421 75.4462C50.7842 75.7714 50.392 75.9621 49.9761 75.9621C49.5601 75.9621 49.1679 75.7714 48.91 75.4462L43.763 68.9708H39.0629C36.7782 68.9708 34.9204 67.1126 34.9204 64.8294V25.4388C34.9204 23.1555 36.7782 21.2974 39.0629 21.2974H83.409C85.6937 21.2974 87.5517 23.1555 87.5517 25.4388Z" fill="#09EAA3"/>
<path d="M87.5516 25.4388V67.6085C87.5516 68.3604 86.9413 68.9708 86.1895 68.9708H82.5572C83.309 68.9708 83.9194 68.3604 83.9194 67.6085V25.4388C83.9194 23.1555 82.0615 21.2974 79.7769 21.2974H83.4091C85.6936 21.2974 87.5516 23.1555 87.5516 25.4388Z" fill="#14BB87"/>
<path d="M46.3289 34.2744H76.2934C77.0456 34.2744 77.6556 33.6646 77.6556 32.9121C77.6556 32.1596 77.0458 31.5498 76.2934 31.5498H46.3289C45.5767 31.5498 44.9668 32.1596 44.9668 32.9121C44.9668 33.6646 45.5766 34.2744 46.3289 34.2744Z" fill="white"/>
<path d="M46.3284 40.4502H76.2931C77.0453 40.4502 77.6553 39.8404 77.6553 39.0879C77.6553 38.3354 77.0455 37.7256 76.2931 37.7256H46.3284C45.5763 37.7256 44.9663 38.3354 44.9663 39.0879C44.9663 39.8404 45.5761 40.4502 46.3284 40.4502Z" fill="white"/>
<path d="M76.2934 56.2529H70.1146C69.3624 56.2529 68.7524 56.8627 68.7524 57.6152C68.7524 58.3678 69.3622 58.9775 70.1146 58.9775H76.2934C77.0456 58.9775 77.6556 58.3678 77.6556 57.6152C77.6556 56.8627 77.0456 56.2529 76.2934 56.2529Z" fill="white"/>
<path d="M63.7707 56.2529H46.3284C45.5763 56.2529 44.9663 56.8627 44.9663 57.6152C44.9663 58.3678 45.5761 58.9775 46.3284 58.9775H63.7707C64.5228 58.9775 65.1328 58.3678 65.1328 57.6152C65.1328 56.8627 64.5228 56.2529 63.7707 56.2529Z" fill="white"/>
<path d="M76.2931 43.9014H59.8519C59.0997 43.9014 58.4897 44.5111 58.4897 45.2637C58.4897 46.0162 59.0995 46.626 59.8519 46.626H76.2931C77.0452 46.626 77.6552 46.0162 77.6552 45.2637C77.6552 44.5111 77.0452 43.9014 76.2931 43.9014Z" fill="white"/>
<path d="M46.3284 46.626H53.24C53.9922 46.626 54.6022 46.0162 54.6022 45.2637C54.6022 44.5111 53.9924 43.9014 53.24 43.9014H46.3284C45.5763 43.9014 44.9663 44.5111 44.9663 45.2637C44.9663 46.0162 45.5761 46.626 46.3284 46.626Z" fill="white"/>
<path d="M46.3284 52.8018H76.293C77.0451 52.8018 77.6551 52.192 77.6551 51.4395C77.6551 50.6869 77.0453 50.0771 76.293 50.0771H46.3284C45.5763 50.0771 44.9663 50.6869 44.9663 51.4395C44.9663 52.192 45.5761 52.8018 46.3284 52.8018Z" fill="white"/>
<path d="M93 67.3995C93 71.9151 89.326 75.5897 84.8093 75.5897C84.1865 75.5897 83.578 75.5188 82.9951 75.3863C79.3501 74.5598 76.6206 71.2921 76.6206 67.3995C76.6206 63.5051 79.3503 60.2374 82.9951 59.411C83.5782 59.2784 84.1865 59.2075 84.8093 59.2075C89.326 59.2075 93 62.8821 93 67.3995Z" fill="#FF6B81"/>
<path d="M93.0001 67.3995C93.0001 71.9151 89.326 75.5897 84.8093 75.5897C84.1865 75.5897 83.578 75.5188 82.9951 75.3863C86.6401 74.558 89.368 71.2903 89.368 67.3995C89.368 63.507 86.6401 60.2392 82.9951 59.411C83.5782 59.2784 84.1865 59.2075 84.8093 59.2075C89.326 59.2075 93.0001 62.8821 93.0001 67.3995Z" fill="#ED2061"/>
</svg>
