<svg width="56" height="99" viewBox="0 0 56 99" fill="none" xmlns="http://www.w3.org/2000/svg">
<path d="M49.0804 98.8794H6.8443C3.13107 98.8794 0.121094 95.8694 0.121094 92.1562V6.84369C0.121094 3.13046 3.13107 0.120483 6.8443 0.120483H49.0804C52.7936 0.120483 55.8036 3.13046 55.8036 6.84369V92.1562C55.8036 95.8692 52.7936 98.8794 49.0804 98.8794Z" fill="#6583FE"/>
<path d="M0.12207 9.73669H55.8036V89.2632H0.12207V9.73669Z" fill="#E2E4ED"/>
<path d="M31.8805 6.25425H24.0444C23.4256 6.25425 22.9238 5.75248 22.9238 5.13372C22.9238 4.51496 23.4256 4.01318 24.0444 4.01318H31.8805C32.4992 4.01318 33.001 4.51496 33.001 5.13372C33.001 5.75248 32.4992 6.25425 31.8805 6.25425Z" fill="#B7C5FF"/>
<path d="M37.1093 6.25429C37.7284 6.25429 38.2302 5.75241 38.2302 5.13331C38.2302 4.51421 37.7284 4.01233 37.1093 4.01233C36.4902 4.01233 35.9883 4.51421 35.9883 5.13331C35.9883 5.75241 36.4902 6.25429 37.1093 6.25429Z" fill="#B7C5FF"/>
<path d="M49.3533 17.3249V36.3516C49.3533 37.5887 48.3493 38.5927 47.1122 38.5927H8.81236C7.57529 38.5927 6.57129 37.5887 6.57129 36.3516V17.3249C6.57129 16.0879 7.57529 15.0839 8.81236 15.0839H47.1122C48.3493 15.0839 49.3533 16.0879 49.3533 17.3249Z" fill="#9FB0FE"/>
<path d="M49.3533 80.3684V89.2632H6.57129V80.3684C6.57129 79.1313 7.57529 78.1273 8.81236 78.1273H47.1122C48.3493 78.1273 49.3533 79.1313 49.3533 80.3684Z" fill="#02FFB3"/>
<path d="M24.1659 83.6964C24.1659 85.6999 23.6863 87.5914 22.837 89.2632H6.57129V80.3684C6.57129 79.1313 7.57529 78.1273 8.81236 78.1273H22.837C23.6863 79.8014 24.1659 81.6929 24.1659 83.6964Z" fill="#97FFD2"/>
<path d="M25.3384 55.0381H7.69182C7.07306 55.0381 6.57129 54.5363 6.57129 53.9175V45.0118C6.57129 44.393 7.07306 43.8912 7.69182 43.8912H25.3384C25.9572 43.8912 26.459 44.393 26.459 45.0118V53.9175C26.459 54.5365 25.9572 55.0381 25.3384 55.0381Z" fill="#FF7EB8"/>
<path d="M48.232 55.0381H30.5854C29.9666 55.0381 29.4648 54.5363 29.4648 53.9175V45.0118C29.4648 44.393 29.9666 43.8912 30.5854 43.8912H48.232C48.8508 43.8912 49.3525 44.393 49.3525 45.0118V53.9175C49.3525 54.5365 48.8508 55.0381 48.232 55.0381Z" fill="#02FFB3"/>
<path d="M25.3384 68.795H7.69182C7.07306 68.795 6.57129 68.2933 6.57129 67.6745V58.7687C6.57129 58.15 7.07306 57.6482 7.69182 57.6482H25.3384C25.9572 57.6482 26.459 58.15 26.459 58.7687V67.6745C26.459 68.2933 25.9572 68.795 25.3384 68.795Z" fill="#8399FE"/>
<path d="M48.232 68.795H30.5854C29.9666 68.795 29.4648 68.2932 29.4648 67.6744V58.7687C29.4648 58.1499 29.9666 57.6481 30.5854 57.6481H48.232C48.8508 57.6481 49.3525 58.1499 49.3525 58.7687V67.6744C49.3525 68.2932 48.8508 68.795 48.232 68.795Z" fill="#FFC4DF"/>
<path d="M17.0328 73.548H7.69182C7.07306 73.548 6.57129 74.0497 6.57129 74.6685C6.57129 75.2873 7.07306 75.789 7.69182 75.789H17.0328C17.6516 75.789 18.1534 75.2873 18.1534 74.6685C18.1534 74.0497 17.6516 73.548 17.0328 73.548Z" fill="#8399FE"/>
<path d="M49.3535 80.3684V85.8792C45.1066 85.8792 41.6621 82.4369 41.6621 78.1901V78.1273H47.1124C48.3495 78.1273 49.3535 79.1313 49.3535 80.3684Z" fill="#01ECA5"/>
</svg>
