<svg width="67" height="14" viewBox="0 0 67 14" fill="none" xmlns="http://www.w3.org/2000/svg">
<g clip-path="url(#clip0)">
<path d="M12.5428 0C8.69691 0 5.6377 3.11872 5.6377 6.94024C5.6377 10.8057 8.74064 13.8805 12.5428 13.8805C16.345 13.8805 19.4479 10.7618 19.4479 6.94024C19.4916 3.11872 16.345 0 12.5428 0ZM12.5428 9.53183C11.1443 9.53183 9.96431 8.34586 9.96431 6.94024C9.96431 5.53462 11.1443 4.34864 12.5428 4.34864C13.9413 4.34864 15.1213 5.53462 15.1213 6.94024C15.1213 8.34586 13.985 9.53183 12.5428 9.53183Z" fill="#8B3FFD"/>
<path d="M5.63773 2.02051V12.1234H3.14664L0 2.02051H5.63773Z" fill="#8B3FFD"/>
<path d="M63.894 3.82178L62.3644 7.59938C62.3208 7.64329 62.3208 7.73113 62.3208 7.77507L62.2768 7.86291L62.2332 7.77507C62.2332 7.73113 62.1896 7.64329 62.1896 7.59938L60.6599 3.82178H58.6934L61.2717 10.2788L60.1793 12.7386H62.1459L65.7733 3.82178H63.894Z" fill="#2B2B2C"/>
<path d="M49.3843 4.17282C49.0346 3.90925 48.5977 3.73355 48.0731 3.68964C47.1992 3.60177 46.369 3.90925 45.8008 4.4803V3.7775H44.0088V10.2346H45.8008V6.85227C45.8008 6.10553 45.9317 5.88592 46.0629 5.71022C46.2814 5.35882 46.6747 5.18312 47.1556 5.18312C47.6362 5.18312 48.0731 5.40274 48.2919 5.75413C48.4228 6.0177 48.4665 6.3691 48.4665 6.54479C48.4665 7.11584 48.4665 10.2346 48.4665 10.2346H50.2585V6.32518C50.2585 5.31487 49.9524 4.61208 49.3843 4.17282Z" fill="#2B2B2C"/>
<path d="M40.6006 3.86584C39.7267 3.55836 38.7652 3.6023 37.891 3.99762C37.3229 4.26118 36.7987 4.70042 36.4926 5.27146C36.1866 5.75464 36.0557 6.3696 36.0557 7.02848C36.0557 7.68736 36.1866 8.30232 36.4926 8.7855C36.7987 9.26868 37.192 9.70794 37.7162 9.9715C38.2407 10.2351 38.8525 10.4108 39.4207 10.4108C39.7267 10.4108 40.0325 10.3668 40.3385 10.279C40.6006 10.1911 40.863 10.1033 41.1251 9.9715C41.6496 9.66402 42.0866 9.26868 42.349 8.7855C42.6547 8.30232 42.7859 7.68736 42.7859 7.02848C42.8296 5.57894 41.9993 4.34902 40.6006 3.86584ZM41.1251 7.11634C41.0815 7.68736 40.9067 8.17054 40.557 8.47802C40.2949 8.69766 39.9015 8.82944 39.4207 8.87336C38.9401 8.87336 38.5904 8.74158 38.2844 8.47802C37.935 8.17054 37.7601 7.68736 37.7162 7.11634C37.6726 6.45746 37.935 5.93034 38.4156 5.57894C38.6777 5.40324 39.0274 5.27146 39.377 5.27146C39.7703 5.27146 40.0764 5.40324 40.3821 5.57894C40.9066 5.88642 41.1688 6.45746 41.1251 7.11634Z" fill="#2B2B2C"/>
<path d="M34.0019 4.17312C33.6522 3.90959 33.2152 3.73389 32.6907 3.68994C32.6034 3.68994 32.4723 3.68994 32.385 3.68994C31.6856 3.68994 31.0738 3.99742 30.5493 4.61238L30.462 4.74416H30.2872C30.156 4.52455 29.9812 4.34885 29.8063 4.21707C29.4566 3.9535 29.0197 3.7778 28.4952 3.73389C27.6649 3.64602 27.0094 3.90959 26.4412 4.52455V3.86567H24.6494V10.3227H26.4412V6.94044V6.85258C26.4412 6.14978 26.5287 5.97408 26.6597 5.75447C26.8783 5.40304 27.2716 5.18343 27.7085 5.22734C28.1458 5.22734 28.5391 5.44699 28.7576 5.79839C28.9324 6.06192 28.9324 6.3694 28.9324 6.67688V10.2788H30.7242V6.80866C30.7242 6.14978 30.8114 5.93017 30.9426 5.71052C31.1611 5.35912 31.5544 5.18343 31.9917 5.18343C32.4286 5.18343 32.7783 5.40304 32.9968 5.75447C33.128 5.97408 33.1716 6.23765 33.1716 6.41335C33.1716 6.50118 33.1716 6.58905 33.1716 6.63296V10.2349H34.9633V6.28156C34.9633 5.93017 34.9197 5.57874 34.8321 5.27126C34.6576 4.83203 34.3952 4.43668 34.0019 4.17312Z" fill="#2B2B2C"/>
<path d="M56.9894 8.30199C56.7273 8.56555 56.1152 9.04873 55.2849 9.09265C54.5856 9.13657 54.0613 8.91695 53.668 8.52164C53.4932 8.34591 53.362 8.08238 53.2747 7.81881H58.213V7.7749C58.2569 7.51133 58.3005 7.29172 58.3005 7.02815C58.3005 6.80854 58.2569 6.50106 58.1693 6.10571C57.9508 5.35897 57.5139 4.78796 56.9457 4.34869C56.29 3.86552 55.6782 3.73373 55.5034 3.73373C54.2362 3.51412 52.7938 4.08513 52.0508 5.27114C51.5263 6.10571 51.5702 6.94029 51.5702 7.20385C51.5702 7.51133 51.6139 8.47769 52.4005 9.35621C53.3183 10.3665 54.5856 10.4104 54.9789 10.4544C56.7273 10.4983 57.9072 9.40013 58.1693 9.18052L56.9894 8.30199ZM53.9301 5.57862C54.1923 5.40292 54.4983 5.27114 54.8916 5.27114C55.2849 5.27114 55.591 5.40292 55.8967 5.57862C56.1591 5.79823 56.3776 6.06179 56.5085 6.36928H53.362C53.4056 6.06179 53.6241 5.75432 53.9301 5.57862Z" fill="#2B2B2C"/>
</g>
<defs>
<clipPath id="clip0">
<rect width="66.013" height="13.8805" fill="white"/>
</clipPath>
</defs>
</svg>
