<svg width="26" height="16" viewBox="0 0 26 16" fill="none" xmlns="http://www.w3.org/2000/svg">
<path d="M25.1247 7.53823C25.1247 11.6746 21.7618 15.0765 17.5873 15.0765C13.4513 15.0765 10.0498 11.6746 10.0498 7.53823C10.0498 3.40187 13.4127 0 17.5486 0C21.7618 0 25.1247 3.40187 25.1247 7.53823Z" fill="#F9B50B"/>
<path d="M15.0363 7.57689C15.0363 7.03568 14.9589 6.49448 14.8816 5.99193H10.2432C10.2819 5.72132 10.3592 5.48938 10.4365 5.18012H14.5724C14.4951 4.90951 14.3791 4.63891 14.2632 4.36831H10.7457C10.8617 4.0977 11.0163 3.86576 11.1709 3.5565H13.838C13.6834 3.2859 13.4901 3.01529 13.2582 2.74469H11.7893C12.0213 2.47409 12.2532 2.24214 12.5624 1.97154C11.2482 0.734494 9.47013 0 7.4988 0C3.40152 0.115973 0 3.40187 0 7.53823C0 11.6746 3.36286 15.0765 7.53745 15.0765C9.50879 15.0765 11.2482 14.3033 12.6011 13.1049C12.8716 12.873 13.1036 12.6024 13.3741 12.2931H11.828C11.6347 12.0612 11.4415 11.7906 11.2869 11.52H13.9153C14.0699 11.288 14.2245 11.0174 14.3405 10.7082H10.823C10.707 10.4762 10.5911 10.2056 10.5138 9.89634H14.6497C14.8816 9.20051 15.0363 8.42735 15.0363 7.57689Z" fill="#C8191C"/>
<path d="M10.2045 9.47096L10.3205 8.77513C10.2818 8.77513 10.2045 8.81379 10.1272 8.81379C9.85665 8.81379 9.81799 8.65916 9.85665 8.58184L10.0886 7.19017H10.5138L10.6297 6.41702H10.2432L10.3205 5.95312H9.50877C9.50877 5.95312 9.04492 8.58184 9.04492 8.8911C9.04492 9.35499 9.3155 9.58694 9.70203 9.58694C9.93396 9.58694 10.1272 9.50962 10.2045 9.47096Z" fill="white"/>
<path d="M10.4746 8.19565C10.4746 9.31672 11.2477 9.58732 11.8661 9.58732C12.446 9.58732 12.7165 9.47135 12.7165 9.47135L12.8711 8.6982C12.8711 8.6982 12.446 8.89148 12.0208 8.89148C11.1317 8.89148 11.2863 8.2343 11.2863 8.2343H12.9098C12.9098 8.2343 13.0258 7.73176 13.0258 7.49981C13.0258 6.99726 12.7552 6.34008 11.8661 6.34008C11.0931 6.30143 10.4746 7.19055 10.4746 8.19565ZM11.8661 7.03592C12.2913 7.03592 12.214 7.53847 12.214 7.57713H11.325C11.3636 7.53847 11.441 7.03592 11.8661 7.03592Z" fill="white"/>
<path d="M16.9298 9.47131L17.0844 8.58219C17.0844 8.58219 16.6979 8.77548 16.3887 8.77548C15.8475 8.77548 15.5769 8.35024 15.5769 7.84769C15.5769 6.88125 16.0408 6.3787 16.6206 6.3787C17.0071 6.3787 17.355 6.61065 17.355 6.61065L17.471 5.76018C17.471 5.76018 17.0071 5.56689 16.5433 5.56689C15.6156 5.56689 14.7266 6.3787 14.7266 7.88635C14.7266 8.89145 15.1904 9.54863 16.1568 9.54863C16.5046 9.58729 16.9298 9.47131 16.9298 9.47131Z" fill="white"/>
<path d="M5.8366 6.30127C5.29545 6.30127 4.87025 6.4559 4.87025 6.4559L4.75429 7.15174C4.75429 7.15174 5.10218 6.99711 5.64333 6.99711C5.91391 6.99711 6.14583 7.03576 6.14583 7.26771C6.14583 7.42234 6.10718 7.461 6.10718 7.461H5.75929C5.06352 7.461 4.3291 7.7316 4.3291 8.65938C4.3291 9.39388 4.79295 9.54851 5.10218 9.54851C5.64333 9.54851 5.91391 9.20059 5.95256 9.20059L5.91391 9.50985H6.57102L6.88025 7.30637C6.88025 6.33993 6.10718 6.30127 5.8366 6.30127ZM5.99121 8.07952C5.99121 8.19549 5.91391 8.85267 5.45006 8.85267C5.21814 8.85267 5.14083 8.65938 5.14083 8.54341C5.14083 8.35012 5.25679 8.07952 5.87525 8.07952C5.95256 8.07952 5.99121 8.07952 5.99121 8.07952Z" fill="white"/>
<path d="M7.65286 9.54859C7.84613 9.54859 8.85112 9.58725 8.85112 8.50484C8.85112 7.49974 7.88478 7.69303 7.88478 7.30645C7.88478 7.11316 8.0394 7.03585 8.30997 7.03585C8.42593 7.03585 8.85112 7.0745 8.85112 7.0745L8.96708 6.34001C8.96708 6.34001 8.69651 6.2627 8.19401 6.2627C7.61421 6.2627 6.99575 6.49464 6.99575 7.30645C6.99575 8.23423 8.00074 8.15692 8.00074 8.50484C8.00074 8.73678 7.73017 8.77544 7.5369 8.77544C7.18902 8.77544 6.80248 8.65947 6.80248 8.65947L6.68652 9.39396C6.76383 9.47127 6.99575 9.54859 7.65286 9.54859Z" fill="white"/>
<path d="M23.5784 5.68262L23.4238 6.76503C23.4238 6.76503 23.1146 6.37845 22.6507 6.37845C21.9163 6.37845 21.2979 7.26758 21.2979 8.31133C21.2979 8.96851 21.6071 9.62569 22.3028 9.62569C22.7667 9.62569 23.0759 9.31643 23.0759 9.31643L23.0373 9.58703H23.849L24.4288 5.75993L23.5784 5.68262ZM23.1919 7.77013C23.1919 8.19536 22.9986 8.77522 22.5348 8.77522C22.2642 8.77522 22.1096 8.54328 22.1096 8.11805C22.1096 7.46087 22.3802 7.07429 22.7667 7.07429C23.0373 7.11295 23.1919 7.30624 23.1919 7.77013Z" fill="white"/>
<path d="M1.46838 9.50972L1.93223 6.64906L2.00953 9.50972H2.55068L3.59433 6.64906L3.16914 9.50972H4.01952L4.67663 5.68262H3.36241L2.55068 8.04073L2.51203 5.68262H1.35242L0.695312 9.50972H1.46838Z" fill="white"/>
<path d="M13.8382 9.50968C14.0702 8.19533 14.1088 7.11291 14.6886 7.3062C14.7659 6.80365 14.8819 6.57171 14.9592 6.37842H14.8046C14.4567 6.37842 14.1475 6.84231 14.1475 6.84231L14.2248 6.41708H13.4517L12.9492 9.50968H13.8382Z" fill="white"/>
<path d="M18.7858 6.30127C18.2447 6.30127 17.8195 6.4559 17.8195 6.4559L17.7035 7.15174C17.7035 7.15174 18.0514 6.99711 18.5925 6.99711C18.8631 6.99711 19.095 7.03576 19.095 7.26771C19.095 7.42234 19.0564 7.461 19.0564 7.461H18.7085C18.0127 7.461 17.2783 7.7316 17.2783 8.65938C17.2783 9.39388 17.7422 9.54851 18.0514 9.54851C18.5925 9.54851 18.8631 9.20059 18.9018 9.20059L18.8631 9.50985H19.5975L19.9068 7.30637C19.9068 6.33993 19.0564 6.30127 18.7858 6.30127ZM18.9791 8.07952C18.9791 8.19549 18.9018 8.85267 18.4379 8.85267C18.206 8.85267 18.1287 8.65938 18.1287 8.54341C18.1287 8.35012 18.2447 8.07952 18.8631 8.07952C18.9404 8.07952 18.9404 8.07952 18.9791 8.07952Z" fill="white"/>
<path d="M20.5248 9.50968C20.7567 8.19533 20.7953 7.11291 21.3752 7.3062C21.4525 6.80365 21.5684 6.57171 21.6457 6.37842H21.4911C21.1432 6.37842 20.834 6.84231 20.834 6.84231L20.9113 6.41708H20.1382L19.6357 9.50968H20.5248Z" fill="white"/>
</svg>
