<svg width="38" height="11" viewBox="0 0 38 11" fill="none" xmlns="http://www.w3.org/2000/svg">
<path d="M33.9861 0H26.6934C27.1182 2.40756 29.4547 4.6735 32.0036 4.6735H37.8095C37.8803 4.46107 37.8803 4.10702 37.8803 3.89458C37.8803 1.77027 36.1102 0 33.9861 0Z" fill="url(#paint0_linear)"/>
<path d="M27.3301 5.09814V10.9754H30.8703V7.85976H33.9856C35.6849 7.85976 37.1718 6.65598 37.6674 5.09814H27.3301Z" fill="#4FAD50"/>
<path d="M14.8691 0V10.9048H17.9845C17.9845 10.9048 18.7633 10.9048 19.1882 10.1259C21.3123 5.9481 21.9495 4.67351 21.9495 4.67351H22.3743V10.9048H25.9145V0H22.7991C22.7991 0 22.0203 0.070815 21.5955 0.778922C19.8254 4.39027 18.8341 6.23134 18.8341 6.23134H18.4093V0H14.8691Z" fill="#4FAD50"/>
<path d="M0 10.9766V0.0717773H3.54017C3.54017 0.0717773 4.53143 0.0717751 5.09786 1.62961C6.51392 5.73663 6.65554 6.30312 6.65554 6.30312C6.65554 6.30312 6.93874 5.31177 8.2132 1.62961C8.77963 0.0717751 9.77089 0.0717773 9.77089 0.0717773H13.3111V10.9766H9.77089V5.09934H9.34606L7.36357 10.9766H5.80589L3.8234 5.09934H3.39858V10.9766H0Z" fill="#4FAD50"/>
<defs>
<linearGradient id="paint0_linear" x1="26.6808" y1="2.37025" x2="37.8552" y2="2.37025" gradientUnits="userSpaceOnUse">
<stop stop-color="#27B1E6"/>
<stop offset="1" stop-color="#148ACA"/>
</linearGradient>
</defs>
</svg>
