<svg width="33" height="15" viewBox="0 0 33 15" fill="none" xmlns="http://www.w3.org/2000/svg">
<path d="M16.0723 8.40264H16.5866V9.56203H16.9583L17.6251 8.40264H18.1875L17.387 9.76336V9.77289L18.2351 11.2578H17.6539L16.9677 10.012H16.5964V11.2578H16.0817V8.40234H16.0723V8.40264ZM19.3879 9.15969C20.0068 9.15969 20.512 9.60998 20.512 10.2327C20.512 10.8653 20.0166 11.306 19.3974 11.306C18.7779 11.306 18.2825 10.8653 18.2825 10.2327C18.273 9.60045 18.7685 9.15969 19.3879 9.15969ZM20.9121 9.20734H21.398V10.8173H22.0365V9.20763H22.5221V10.8173H23.1605V9.20763H23.6465V11.2578H20.931V9.20734H20.9121ZM25.0853 9.15969C25.6663 9.15969 25.9903 9.59092 25.9903 10.1276C25.9887 10.195 25.9823 10.2621 25.9713 10.3286H24.5707C24.5994 10.683 24.8757 10.8748 25.1807 10.8748C25.39 10.8748 25.5997 10.7789 25.7617 10.6544L25.9618 11.0186C25.7522 11.2003 25.4377 11.3156 25.1425 11.3156C24.4658 11.3156 24.0468 10.8269 24.0468 10.2422C24.0468 9.60045 24.4753 9.15969 25.0853 9.15969ZM26.2284 10.8269C26.4762 10.7884 26.6571 10.5779 26.6571 9.84943V9.20763H28.1437V11.2578H27.6385V9.61921H27.1431V9.84913C27.1431 10.7402 26.905 11.2578 26.2284 11.2769V10.8266V10.8269ZM29.5917 9.15969C30.1727 9.15969 30.4967 9.59092 30.4967 10.1276C30.4951 10.195 30.4887 10.2621 30.4777 10.3286H29.077C29.1058 10.683 29.3821 10.8748 29.6871 10.8748C29.8964 10.8748 30.1061 10.7789 30.268 10.6544L30.4682 11.0186C30.2586 11.2003 29.9441 11.3156 29.6489 11.3156C28.9725 11.3156 28.5532 10.8269 28.5532 10.2422C28.5532 9.60045 28.982 9.15969 29.5917 9.15969ZM30.916 9.20734H31.4208V9.99327H31.6687L32.1641 9.20763H32.7262L32.0782 10.1848V10.1946L32.8023 11.2578H32.2118L31.6782 10.4245H31.4117V11.2578H30.9062V9.20734H30.9157H30.916ZM19.3879 10.8653C19.7214 10.8653 19.9977 10.6065 19.9977 10.2232C19.9977 9.84943 19.7214 9.58109 19.3876 9.58109C19.0545 9.58109 18.7877 9.84019 18.7877 10.2232C18.7877 10.6065 19.0542 10.8653 19.3879 10.8653ZM25.4759 9.97421C25.4759 9.70588 25.2947 9.54297 25.0661 9.54297C24.809 9.54297 24.6183 9.71541 24.5707 9.97421H25.4759ZM29.9823 9.97421C29.9823 9.70588 29.8014 9.54297 29.5728 9.54297C29.3151 9.54297 29.1247 9.71541 29.077 9.97421H29.9823Z" fill="#2B2B2C"/>
<path d="M23.1896 2.18447V7.02337C23.19 7.04108 23.1868 7.05869 23.1803 7.07513C23.1737 7.09158 23.1639 7.10651 23.1515 7.11904C23.139 7.13157 23.1242 7.14142 23.1078 7.14801C23.0915 7.1546 23.0739 7.15779 23.0563 7.15738H22.075C22.0574 7.15779 22.0399 7.1546 22.0235 7.14801C22.0072 7.14142 21.9923 7.13157 21.9799 7.11904C21.9674 7.10651 21.9576 7.09158 21.951 7.07513C21.9445 7.05869 21.9413 7.04108 21.9417 7.02337V2.18447C21.9413 2.16676 21.9445 2.14915 21.951 2.13271C21.9576 2.11626 21.9674 2.10133 21.9799 2.0888C21.9923 2.07627 22.0072 2.06642 22.0235 2.05983C22.0399 2.05324 22.0574 2.05005 22.075 2.05046H23.0563C23.0739 2.05005 23.0915 2.05324 23.1078 2.05983C23.1242 2.06642 23.139 2.07627 23.1515 2.0888C23.1639 2.10133 23.1737 2.11626 23.1803 2.13271C23.1868 2.14915 23.19 2.16676 23.1896 2.18447ZM30.8497 2.05046C30.8879 2.05046 30.9355 2.06952 30.9829 2.10793C31.0116 2.13652 31.0116 2.18447 31.0022 2.22289L29.3824 7.07132C29.3726 7.09641 29.3555 7.118 29.3335 7.13337C29.3115 7.14875 29.2854 7.15721 29.2586 7.15768H28.3821C28.3249 7.15768 28.2773 7.1288 28.2583 7.07132L27.3146 4.24476L26.3714 7.07102C26.3616 7.09611 26.3446 7.1177 26.3225 7.13308C26.3005 7.14845 26.2744 7.15691 26.2476 7.15738H25.3711C25.314 7.15738 25.2663 7.1288 25.2473 7.07102L23.6276 2.22259C23.6181 2.18447 23.6181 2.14605 23.6465 2.10793C23.6658 2.06952 23.7134 2.05046 23.7513 2.05046H24.847C24.9041 2.05046 24.9518 2.08858 24.9711 2.14605L25.8378 5.01103L26.7907 2.14605C26.8006 2.12096 26.8176 2.09937 26.8396 2.084C26.8616 2.06862 26.8877 2.06016 26.9145 2.05969H27.6862C27.7433 2.05969 27.791 2.08858 27.81 2.14605L28.7629 5.01103L29.6299 2.14605C29.6377 2.11891 29.6539 2.09499 29.6762 2.07779C29.6985 2.06058 29.7256 2.05101 29.7537 2.05046H30.8494H30.8497ZM32.5074 2.05046C32.574 2.05046 32.6311 2.10793 32.6406 2.18447V7.02337C32.641 7.04108 32.6378 7.05869 32.6313 7.07513C32.6247 7.09158 32.6149 7.10651 32.6025 7.11904C32.59 7.13157 32.5752 7.14142 32.5588 7.14801C32.5425 7.1546 32.525 7.15779 32.5074 7.15738H31.526C31.5084 7.15779 31.4909 7.1546 31.4745 7.14801C31.4582 7.14142 31.4433 7.13157 31.4309 7.11904C31.4184 7.10651 31.4086 7.09158 31.4021 7.07513C31.3955 7.05869 31.3923 7.04108 31.3928 7.02337V2.18447C31.3923 2.16676 31.3955 2.14915 31.4021 2.13271C31.4086 2.11626 31.4184 2.10133 31.4309 2.0888C31.4433 2.07627 31.4582 2.06642 31.4745 2.05983C31.4909 2.05324 31.5084 2.05005 31.526 2.05046H32.5074ZM21.3699 6.98525C21.4271 7.05226 21.3794 7.14785 21.2935 7.14785H20.093C20.0694 7.1485 20.0459 7.14364 20.0245 7.13368C20.003 7.12371 19.9841 7.10889 19.9693 7.09038L19.7694 6.8414C19.3501 7.10944 18.8544 7.27264 18.3305 7.27264C16.8635 7.27264 15.6725 6.07483 15.6725 4.59916C15.6725 3.12348 16.8635 1.92567 18.3305 1.92567C19.7978 1.92567 20.9888 3.12348 20.9888 4.59916C20.9888 5.12629 20.8363 5.62453 20.5695 6.04594L21.3699 6.98495V6.98525ZM11.3373 9.33262C11.5852 9.42852 11.6805 9.80198 11.6995 9.96489C11.7377 10.2621 11.6521 10.3771 11.5567 10.3771C11.4614 10.3771 11.3278 10.2621 11.1851 10.0322C11.0421 9.80198 10.9849 9.54348 11.0613 9.40916C11.1087 9.3228 11.2135 9.28468 11.3376 9.33262H11.3373ZM9.88928 10.4155C10.0418 10.4155 10.2132 10.4825 10.3657 10.6165C10.661 10.8658 10.7468 11.1532 10.5943 11.364C10.5085 11.4694 10.3657 11.5365 10.2038 11.5365C10.0418 11.5365 9.87033 11.479 9.75603 11.3735C9.48922 11.1436 9.41312 10.7601 9.58428 10.5495C9.6512 10.4631 9.75603 10.4155 9.88928 10.4155ZM6.55495 13.1846C2.93427 13.1846 0 10.2332 0 6.59213C0 2.95105 2.93457 0 6.55465 0C10.175 0 13.1096 2.95135 13.1096 6.59213C13.1096 7.82806 12.7667 8.98776 12.1857 9.97471C12.1665 10.0033 12.1188 9.99377 12.1093 9.95536C11.8807 8.33614 10.8994 7.44478 9.47027 7.17674C9.34619 7.15739 9.32724 7.08085 9.48922 7.06179C9.92748 7.02337 10.5467 7.0329 10.8706 7.09038C10.8896 6.92747 10.8994 6.75504 10.8994 6.5826C10.8994 4.17745 8.95561 2.22259 6.56413 2.22259C4.17295 2.22259 2.2292 4.17745 2.2292 6.5826C2.2292 8.98776 4.17295 10.9426 6.56443 10.9426H6.76431C6.6964 10.5536 6.66763 10.1587 6.67843 9.76386C6.6882 9.49553 6.74536 9.45711 6.85966 9.66797C7.4599 10.7124 8.31747 11.6514 9.99411 12.0252C11.366 12.3319 12.738 12.6863 14.2147 14.5739C14.348 14.7368 14.1481 14.9092 13.9956 14.7752C12.4904 13.4335 11.1185 12.9928 9.87033 12.9928C8.46967 13.0026 7.51705 13.1846 6.55465 13.1846H6.55495ZM18.9879 5.91192L18.4638 5.26983C18.4069 5.20283 18.4546 5.0974 18.5402 5.0974H19.6453C19.7025 4.94402 19.7312 4.77159 19.7312 4.59916C19.7312 3.80399 19.1404 3.11395 18.3305 3.11395C17.5209 3.11395 16.9299 3.80399 16.9299 4.59916C16.9299 5.39432 17.5209 6.07483 18.3305 6.07483C18.5591 6.08436 18.788 6.01735 18.9879 5.91192Z" fill="#FF8C00"/>
</svg>
