<svg width="81" height="95" viewBox="0 0 81 95" fill="none" xmlns="http://www.w3.org/2000/svg">
<path d="M38.9145 0.449788C31.9751 6.75077 18.0591 11.2451 1.66139 11.9275C0.733281 11.9661 0 12.7285 0 13.6574V46.3889C0 62.8367 8.84149 78.0148 23.149 86.1284L37.6764 94.3667C39.1656 95.2111 40.9889 95.2111 42.478 94.3667L57.0053 86.1284C71.3127 78.015 80.1543 62.8367 80.1543 46.3889V13.6574C80.1543 12.7285 79.4211 11.9661 78.493 11.9275C62.0953 11.2449 48.1796 6.7504 41.24 0.449603C40.5798 -0.149899 39.5749 -0.149899 38.9145 0.449788Z" fill="#6583FE"/>
<path d="M25.9007 82.2978C13.0088 75.0213 5 61.3373 5 46.5863V18.9808C5 18.114 5.65301 17.3839 6.51811 17.2852C19.5045 15.8029 30.8342 12.3033 39.1076 7.25107C39.6558 6.91631 40.3446 6.91631 40.8928 7.25107C49.166 12.3035 60.4955 15.8029 73.4819 17.2852C74.347 17.3839 75 18.114 75 18.9808V46.5863C75 61.3373 66.9912 75.0213 54.0993 82.2978L40.8467 89.7777C40.3215 90.0741 39.6787 90.0741 39.1535 89.7777L25.9007 82.2978Z" fill="#E2E4ED"/>
<path d="M40.0001 26C34.4861 26 30 30.611 30 36.2787V43H33.9282C33.9282 42.0337 33.9282 37.2468 33.9282 36.2787C33.9282 32.8375 36.652 30.0378 40 30.0378C43.348 30.0378 46.0718 32.8375 46.0718 36.2787V43H50C50 42.0337 50 37.2468 50 36.2787C50.0003 30.611 45.5141 26 40.0001 26Z" fill="#8D9CA8"/>
<path d="M51.4799 61H28.52C27.1282 61 26 59.845 26 58.4202V41.5798C26 40.1549 27.1282 39 28.52 39H51.48C52.8718 39 54 40.1551 54 41.5798V58.4202C54 59.8449 52.8717 61 51.4799 61Z" fill="#596C76"/>
<path d="M44 47.4094C44 45.5264 42.209 44 40 44C37.7908 44 36 45.5264 36 47.4094C36 48.6691 36.8021 49.7684 37.9941 50.3587V54.2902C37.9941 55.2344 38.8923 56 40.0001 56C41.108 56 42.0062 55.2344 42.0062 54.2902V50.3587C43.198 49.7684 44 48.6691 44 47.4094Z" fill="#384949"/>
<path d="M51.6594 39H48C49.2927 39 50.3406 40.1551 50.3406 41.5798V58.4202C50.3406 59.845 49.2927 61 48 61H51.6594C52.9521 61 54 59.845 54 58.4202V41.5798C54 40.1549 52.952 39 51.6594 39Z" fill="#465A61"/>
</svg>
