<svg width="85" height="94" viewBox="0 0 85 94" fill="none" xmlns="http://www.w3.org/2000/svg">
<path d="M83.5095 48.4669L83.4725 48.4708L80.6654 48.7531C80.5603 48.7648 80.4571 48.7706 80.352 48.7764L79.5772 48.8115C78.8724 48.8441 78.1907 49.0729 77.6091 49.4723C77.0274 49.8716 76.5689 50.4256 76.2853 51.0716L76.0887 51.5232C75.6313 52.5671 74.8798 53.4551 73.926 54.0787C72.9722 54.7024 71.8574 55.0347 70.7178 55.0351H67.42C66.6368 55.0349 65.8816 54.7435 65.3013 54.2175C64.7209 53.6915 64.3569 52.9685 64.28 52.189L64.1476 50.8691C64.0913 50.3071 63.9091 49.765 63.6146 49.2831C63.32 48.8012 62.9207 48.3918 62.4462 48.0854C61.9528 47.7662 61.5472 47.3285 61.2664 46.8124C60.9855 46.2962 60.8383 45.7179 60.8382 45.1303V43.8065C60.8383 43.2094 60.9651 42.6192 61.2105 42.0748C61.4558 41.5305 61.814 41.0445 62.2613 40.649L67.895 35.6674C68.4578 35.1703 68.8658 34.522 69.0705 33.7996C69.2751 33.0773 69.2678 32.3113 69.0494 31.5929C68.8234 30.8449 68.385 30.1787 67.7875 29.6752C67.1899 29.1717 66.4591 28.8526 65.6836 28.7566L65.1152 28.6865C64.0395 28.5548 63.0503 28.0307 62.3372 27.2148C61.8995 26.7132 61.6287 26.0878 61.5624 25.4254C61.4962 24.763 61.6377 24.0964 61.9673 23.518L65.6719 17.1679L65.6758 17.164C58.6541 12.6846 50.0672 9.70813 41.8248 9.70813C40.7405 9.70813 39.5375 9.77626 38.3558 9.87944V9.88333L43.6489 17.5183C44.3559 18.5394 44.7199 19.7588 44.6884 21.0003C44.6569 22.2419 44.2315 23.4412 43.4737 24.4252L42.0896 26.2259C41.6275 26.8255 41.0166 27.2937 40.3175 27.584C39.6184 27.8743 38.8556 27.9765 38.1047 27.8806L36.5337 27.6801C35.6529 27.5677 34.7585 27.7164 33.9615 28.1078C33.1645 28.4992 32.5 29.1161 32.0505 29.8818C31.6165 30.6214 30.9748 31.2174 30.2052 31.5956C29.4355 31.9739 28.5717 32.1178 27.721 32.0095L24.0924 31.5482C23.2213 31.4376 22.3366 31.5706 21.5366 31.9325C20.7366 32.2943 20.0526 32.8709 19.5604 33.598C19.1169 34.254 18.8742 35.0251 18.8621 35.8168C18.85 36.6086 19.069 37.3867 19.4923 38.056L21.8906 41.8442C22.3899 42.6348 23.1703 43.2067 24.0744 43.4447C24.9786 43.6828 25.9394 43.5693 26.7632 43.1271L29.2316 41.8034C30.9953 40.8573 33.8064 41.0033 35.5234 42.0331H35.5253L46.9369 49.5103L48.2548 51.3169C48.3969 51.5154 48.5487 51.7101 48.7084 51.897L51.7063 55.4283C51.9421 55.7063 52.119 56.0293 52.2264 56.3777C52.3338 56.7261 52.3693 57.0926 52.3309 57.4551C52.2925 57.8177 52.181 58.1686 52.003 58.4868C51.825 58.805 51.5844 59.0837 51.2955 59.3061L46.75 62.7985C45.7358 63.5794 44.9884 64.6552 44.6106 65.8782L43.098 70.7956C42.9325 71.3302 42.6633 71.827 42.3057 72.2575L40.832 74.031C39.8842 75.173 39.2968 76.5708 39.1442 78.047C39.0807 78.6708 38.8501 79.2659 38.4766 79.7695C38.1032 80.2731 37.6008 80.6667 37.0223 80.9087C36.6987 81.0454 36.3482 81.1068 35.9974 81.0884C35.6465 81.07 35.3044 80.9723 34.9968 80.8024C34.6893 80.6326 34.4242 80.3952 34.2217 80.1081C34.0192 79.821 33.8845 79.4917 33.8278 79.145L32.4398 70.8092C32.2996 69.9604 31.9534 69.1589 31.4314 68.4751L26.3466 61.8018C25.8002 61.0842 25.3959 60.2689 25.1553 59.3996L23.4772 53.3395C23.2374 52.4714 22.7758 51.6805 22.1379 51.0447C21.5 50.4088 20.7077 49.9498 19.8388 49.7128L19.4748 49.6135C18.5512 49.361 17.7036 48.8857 17.0064 48.2294L13.8761 45.2802C13.296 44.7333 12.7983 44.1051 12.3985 43.4152C11.792 42.3701 10.8744 41.5404 9.77377 41.0417C8.67312 40.5431 7.44429 40.4003 6.25864 40.6334L1.11351 42.3076L1.10573 42.3056C0.39157 45.3439 0.0206736 48.4528 0 51.5738C0 74.6967 18.7253 93.4415 41.8248 93.4415C64.9244 93.4415 83.6516 74.6967 83.6516 51.5738C83.6516 50.618 83.601 49.5687 83.5095 48.4669Z" fill="#7CE5E9"/>
<path d="M80.6986 34.6629L80.6967 34.661L73.7742 23.7167L73.7722 23.7147C71.339 21.222 68.6216 19.0234 65.6759 17.1641L65.672 17.168L61.9675 23.5181C61.6378 24.0965 61.4963 24.7631 61.5626 25.4255C61.6288 26.0879 61.8996 26.7133 62.3373 27.2149C63.0505 28.0308 64.0396 28.5549 65.1153 28.6866L65.6837 28.7567C66.4592 28.8526 67.1901 29.1718 67.7876 29.6753C68.3851 30.1788 68.8235 30.845 69.0496 31.593C69.268 32.3113 69.2753 33.0773 69.0706 33.7997C68.8659 34.5221 68.4579 35.1704 67.8952 35.6674L62.2614 40.649C61.8141 41.0445 61.4559 41.5305 61.2106 42.0749C60.9653 42.6192 60.8384 43.2095 60.8384 43.8066V45.1303C60.8384 45.718 60.9856 46.2963 61.2665 46.8124C61.5473 47.3286 61.953 47.7662 62.4464 48.0854C62.9208 48.3919 63.3201 48.8013 63.6147 49.2832C63.9093 49.7651 64.0914 50.3072 64.1478 50.8692L64.2801 52.1891C64.3571 52.9685 64.7211 53.6915 65.3014 54.2176C65.8817 54.7436 66.6369 55.035 67.4202 55.0351H70.7179C71.8575 55.0348 72.9723 54.7024 73.9261 54.0788C74.88 53.4551 75.6315 52.5671 76.0888 51.5233L76.2854 51.0717C76.5691 50.4256 77.0276 49.8717 77.6092 49.4724C78.1909 49.073 78.8725 48.8441 79.5773 48.8116L80.3521 48.7765C80.4572 48.7707 80.5604 48.7648 80.6655 48.7532L83.4727 48.4709L83.5096 48.467C83.1222 43.828 81.9873 38.241 80.6986 34.6629Z" fill="#B1E862"/>
<path d="M51.706 55.4284L48.7081 51.8971C48.5485 51.7102 48.3966 51.5155 48.2545 51.317L46.9366 49.5104L35.5251 42.0331H35.5231C33.8061 41.0033 30.9951 40.8573 29.2314 41.8034L26.763 43.1272C25.9391 43.5694 24.9783 43.6829 24.0742 43.4448C23.17 43.2068 22.3897 42.6348 21.8904 41.8443L19.492 38.056C19.0687 37.3868 18.8497 36.6087 18.8618 35.8169C18.8739 35.0251 19.1166 34.2541 19.5602 33.5981C20.0523 32.8709 20.7364 32.2944 21.5364 31.9325C22.3364 31.5707 23.221 31.4377 24.0921 31.5482L27.7207 32.0096C28.5715 32.1179 29.4352 31.974 30.2049 31.5957C30.9746 31.2174 31.6162 30.6215 32.0502 29.8819C32.4997 29.1161 33.1642 28.4993 33.9613 28.1079C34.7583 27.7165 35.6527 27.5677 36.5335 27.6801L38.1044 27.8806C38.8553 27.9766 39.6182 27.8743 40.3173 27.584C41.0164 27.2937 41.6273 26.8255 42.0893 26.226L43.4734 24.4253C44.2313 23.4413 44.6567 22.2419 44.6882 21.0004C44.7196 19.7589 44.3556 18.5394 43.6486 17.5184L38.3556 9.88341V9.87952C37.3705 9.96712 36.4011 10.08 35.5309 10.2027L35.5075 10.1949L23.6405 13.7573C21.0864 15.0207 17.7653 17.2478 15.5422 18.9842L5.47386 30.6508L5.46024 30.6605C3.49683 34.3311 2.0323 38.2475 1.10547 42.3057L1.11326 42.3076L6.25838 40.6335C7.44403 40.4004 8.67287 40.5431 9.77351 41.0418C10.8742 41.5405 11.7917 42.3702 12.3983 43.4153C12.798 44.1051 13.2957 44.7333 13.8758 45.2802L17.0061 48.2295C17.7033 48.8858 18.5509 49.361 19.4745 49.6136L19.8386 49.7129C20.7075 49.9499 21.4998 50.4089 22.1377 51.0448C22.7756 51.6806 23.2371 52.4714 23.4769 53.3396L25.155 59.3997C25.3956 60.2689 25.8 61.0843 26.3464 61.8019L31.4312 68.4752C31.9531 69.159 32.2994 69.9605 32.4395 70.8093L33.8275 79.145C33.8843 79.4918 34.019 79.8211 34.2215 80.1082C34.424 80.3953 34.689 80.6327 34.9966 80.8025C35.3041 80.9723 35.6463 81.0701 35.9971 81.0885C36.348 81.1069 36.6984 81.0454 37.0221 80.9087C37.6005 80.6668 38.1029 80.2732 38.4764 79.7696C38.8498 79.2659 39.0805 78.6709 39.144 78.0471C39.2965 76.5708 39.8839 75.1731 40.8318 74.031L42.3054 72.2576C42.663 71.8271 42.9323 71.3303 43.0977 70.7956L44.6103 65.8783C44.9881 64.6553 45.7355 63.5794 46.7497 62.7986L51.2953 59.3062C51.5841 59.0838 51.8248 58.805 52.0027 58.4869C52.1807 58.1687 52.2923 57.8177 52.3307 57.4552C52.3691 57.0927 52.3335 56.7261 52.2261 56.3778C52.1188 56.0294 51.9418 55.7064 51.706 55.4284Z" fill="#B1E862"/>
<path d="M5.8401 51.5739C5.86077 48.4528 6.23167 45.3439 6.94582 42.3056C7.08326 41.7086 7.23251 41.115 7.39356 40.5248H7.37994C7.00352 40.5246 6.62797 40.5611 6.25864 40.6338L1.11351 42.308L1.10573 42.306C0.391599 45.3442 0.0207027 48.4529 0 51.5739C0 74.6968 18.7253 93.4415 41.8248 93.4415C42.8068 93.4415 43.7799 93.4049 44.7449 93.3383C23.008 91.8374 5.8401 73.7139 5.8401 51.5739Z" fill="#64CCC9"/>
<path d="M6.25838 40.6335C6.62772 40.5608 7.00326 40.5243 7.37968 40.5245H7.39331C8.31339 37.0976 9.62433 33.7879 11.3003 30.6605L11.314 30.6508L21.3823 18.9842C23.6054 17.2478 26.9265 15.0207 29.4806 13.7573L39.0505 10.8848L38.3556 9.88341V9.87952C37.3705 9.96712 36.4011 10.08 35.5309 10.2027L35.5075 10.1949L23.6405 13.7573C21.0864 15.0207 17.7653 17.2478 15.5422 18.9842L5.47386 30.6508L5.46024 30.6605C3.49683 34.3311 2.0323 38.2475 1.10547 42.3057L1.11326 42.3076L6.25838 40.6335Z" fill="#9AC146"/>
<path d="M23.6407 13.7573L22.5817 12.3401C21.4661 10.8636 20.9064 9.04123 21.001 7.19305C21.2483 3.37947 24.2851 0 28.4686 0C32.652 0 35.6889 3.37947 35.9361 7.19305C36.0024 8.21251 35.8566 9.23463 35.5078 10.1949C35.2339 10.9639 34.8454 11.6872 34.3554 12.3401L28.4686 20.2145L23.6407 13.7573Z" fill="#FF8564"/>
<path d="M16.987 23.0431C17.0921 24.8916 16.5321 26.7167 15.4083 28.1882L9.5195 36.0645L5.47426 30.6508L3.63268 28.1882C2.51854 26.7117 1.959 24.8904 2.05196 23.0431C2.30114 19.2295 5.33604 15.85 9.5195 15.85C10.702 15.8468 11.8676 16.1303 12.9166 16.6761C13.9656 17.222 14.8666 18.0139 15.5426 18.9842C16.3896 20.1778 16.8896 21.5827 16.987 23.0431Z" fill="#FF8564"/>
<path d="M28.2234 11.3609C30.3791 11.3609 32.1266 9.61258 32.1266 7.45586C32.1266 5.29914 30.3791 3.55078 28.2234 3.55078C26.0678 3.55078 24.3203 5.29914 24.3203 7.45586C24.3203 9.61258 26.0678 11.3609 28.2234 11.3609Z" fill="#D4E1F4"/>
<path d="M9.27423 19.3988C10.0469 19.3982 10.8023 19.6268 11.445 20.0556C12.0877 20.4844 12.5888 21.0942 12.8849 21.8078C13.1811 22.5215 13.2589 23.3069 13.1086 24.0647C12.9583 24.8226 12.5866 25.5189 12.0405 26.0655C11.4945 26.6121 10.7986 26.9845 10.0409 27.1355C9.28314 27.2866 8.49764 27.2095 7.78372 26.9141C7.06979 26.6187 6.45951 26.1182 6.03006 25.476C5.60061 24.8337 5.37129 24.0785 5.37109 23.3058C5.37081 22.793 5.47155 22.2851 5.66755 21.8112C5.86356 21.3373 6.15099 20.9067 6.51343 20.5439C6.87588 20.1811 7.30624 19.8932 7.77994 19.6968C8.25364 19.5003 8.7614 19.399 9.27423 19.3988Z" fill="#D4E1F4"/>
<path d="M50.3728 41.6666C50.4779 43.5151 49.9178 45.3403 48.794 46.8117L42.9052 54.6881L38.86 49.2743L37.0184 46.8117C35.9043 45.3352 35.3447 43.514 35.4377 41.6666C35.6869 37.853 38.7218 34.4735 42.9052 34.4735C44.0877 34.4703 45.2534 34.7538 46.3024 35.2996C47.3513 35.8455 48.2524 36.6375 48.9283 37.6077C49.7754 38.8013 50.2753 40.2062 50.3728 41.6666Z" fill="#FF8564"/>
<path d="M42.7591 38.1067C43.5318 38.1061 44.2873 38.3347 44.9301 38.7636C45.5728 39.1925 46.0739 39.8024 46.37 40.5162C46.666 41.2299 46.7438 42.0154 46.5933 42.7733C46.4428 43.5313 46.0709 44.2275 45.5247 44.774C44.9784 45.3206 44.2824 45.6928 43.5245 45.8436C42.7667 45.9945 41.9811 45.9172 41.2672 45.6215C40.5533 45.3258 39.9432 44.825 39.514 44.1824C39.0848 43.5399 38.8558 42.7845 38.856 42.0118C38.8558 40.9764 39.2668 39.9833 39.9988 39.2509C40.7308 38.5186 41.7237 38.107 42.7591 38.1067Z" fill="#D4E1F4"/>
<path d="M84.473 27.1739C84.5562 28.66 84.1061 30.127 83.2037 31.3107L80.6964 34.6609L78.4694 37.6394L73.7369 31.3107C72.8994 30.2203 72.4485 28.8822 72.4552 27.5073C72.4618 26.1324 72.9258 24.7988 73.7739 23.7166C74.323 22.9919 75.033 22.4047 75.8478 22.0013C76.6627 21.5979 77.5601 21.3894 78.4694 21.3922C81.8333 21.3922 84.2744 24.1098 84.473 27.1739ZM81.4108 27.3861C81.4108 26.7655 81.2268 26.1588 80.882 25.6427C80.5371 25.1267 80.0471 24.7244 79.4736 24.4869C78.9002 24.2494 78.2693 24.1873 77.6605 24.3083C77.0518 24.4294 76.4927 24.7283 76.0538 25.1672C75.6149 25.606 75.3161 26.1652 75.195 26.7739C75.0739 27.3826 75.136 28.0136 75.3735 28.587C75.6111 29.1604 76.0133 29.6505 76.5293 29.9953C77.0454 30.3402 77.6521 30.5242 78.2727 30.5242C79.1049 30.5239 79.9029 30.1932 80.4914 29.6047C81.0798 29.0163 81.4105 28.2183 81.4108 27.3861Z" fill="#FF8564"/>
<path d="M78.2728 24.2462C78.8937 24.246 79.5007 24.4299 80.017 24.7747C80.5333 25.1195 80.9358 25.6096 81.1736 26.1831C81.4113 26.7566 81.4737 27.3878 81.3527 27.9967C81.2318 28.6057 80.933 29.1651 80.4942 29.6042C80.0553 30.0434 79.4961 30.3425 78.8872 30.4638C78.2783 30.5851 77.6471 30.5232 77.0735 30.2857C76.4998 30.0483 76.0094 29.6461 75.6643 29.13C75.3192 28.6139 75.135 28.0071 75.1348 27.3862C75.1346 26.5537 75.465 25.7552 76.0535 25.1664C76.642 24.5775 77.4403 24.2465 78.2728 24.2462Z" fill="#D4E1F4"/>
</svg>
