<svg width="39" height="12" viewBox="0 0 39 12" fill="none" xmlns="http://www.w3.org/2000/svg">
<path d="M35.8407 0.168457H33.4251C32.6948 0.168457 32.133 0.393187 31.796 1.12356L27.1895 11.6297H30.4477C30.4477 11.6297 31.0095 10.2251 31.1218 9.88804C31.4589 9.88804 34.661 9.88804 35.1104 9.88804C35.2227 10.2813 35.5036 11.5735 35.5036 11.5735H38.4248L35.8407 0.168457ZM32.0207 7.52837C32.3015 6.85418 33.2566 4.32597 33.2566 4.32597C33.2566 4.38215 33.5374 3.65178 33.6498 3.2585L33.8745 4.26978C33.8745 4.26978 34.4924 7.02273 34.6048 7.58456H32.0207V7.52837Z" fill="#3362AB"/>
<path d="M27.4145 7.86556C27.4145 10.2252 25.2798 11.7983 21.9654 11.7983C20.561 11.7983 19.2127 11.5174 18.4824 11.1803L18.9318 8.59593L19.3251 8.76448C20.3363 9.21394 21.0104 9.38249 22.2463 9.38249C23.1451 9.38249 24.1001 9.04539 24.1001 8.25884C24.1001 7.7532 23.7069 7.4161 22.471 6.85427C21.2913 6.29245 19.7183 5.39353 19.7183 3.76423C19.7183 1.51693 21.9092 0 24.9989 0C26.1786 0 27.1898 0.22473 27.8078 0.505643L27.3584 2.97768L27.1337 2.75295C26.5719 2.52822 25.8416 2.30349 24.7742 2.30349C23.5945 2.35967 23.0327 2.86531 23.0327 3.31477C23.0327 3.82042 23.7069 4.21369 24.7742 4.71934C26.5719 5.56207 27.4145 6.51718 27.4145 7.86556Z" fill="#3362AB"/>
<path d="M0 0.281859L0.0561768 0.0571289H4.88738C5.5615 0.0571289 6.06709 0.281859 6.23562 1.01223L7.30298 6.06866C6.23562 3.3719 3.76385 1.18078 0 0.281859Z" fill="#F9B50B"/>
<path d="M14.1005 0.168487L9.21311 11.5735H5.89868L3.08984 2.02251C5.11221 3.31471 6.79751 5.33728 7.41546 6.74185L7.75252 7.92168L10.7861 0.112305H14.1005V0.168487Z" fill="#3362AB"/>
<path d="M15.392 0.112305H18.4817L16.5155 11.5735H13.4258L15.392 0.112305Z" fill="#3362AB"/>
</svg>
